<svg xmlns="http://www.w3.org/2000/svg" viewBox="0 0 947.03 718.03"><defs><style>.cls-1{fill:#fff;}</style></defs><g id="Layer_2" data-name="Layer 2"><g id="Layer_1-2" data-name="Layer 1"><path class="cls-1" d="M947,718H0V0H947ZM355.89,472.64c4.19-1,10.11-.62,12.22-3.27,4.43-5.58,10.8-10.24,12-18,.06-.38-.44-.84-1.3-2.39l-12.59,4.11-3.81,7.37-9.3,3.6c1.08,3.26,2,6,2.88,8.73-5.12-.07-10.23-.11-12,6,1.57,3.33,3.87,4.46,6.74,3.19C354.64,480.19,356.8,477.19,355.89,472.64ZM289.42,249.55c-.19,3.87-.38,7.74-.58,11.89l11.36,7.67c1.16-4.77,2-8.35,2.94-12.11-4.8-3.17-7.7-7.94-13.66-7.51-.47-1-.94-2-1.38-2.89-8.46,2.56-11,6.11-10.4,14.79.46,6.58,1.36,13.13,2,18.95-2.3,4.32-8.35,5.87-5.47,12.25a34.26,34.26,0,0,0,4.53-2.06,51.21,51.21,0,0,0,4.38-3.53c3.74,2.13,3.86,8.53,10,6.87,1.35-5.83-1.9-10.48-4.48-14.94C282.84,268.82,284.3,259.21,289.42,249.55ZM460.91,381.11c-2,2-4.5,3.78-6.07,6.13q-17.4,26.07-34.47,52.35c-13.56,21-30.35,39.28-47.7,57.1-10.82,11.12-30.6,10.77-40.93-.88a13.37,13.37,0,0,1-1.56-3.22c3-4.29,10.66-2.75,11.34-9.42-12.18-3.34-21.13,1.73-23.32,14.13l4.6,3.41c-.17,2.24-.33,4.29-.51,6.66,1.49.07,2.55.43,3.35.12,6.23-2.43,12-.93,17.81,1.58a27.09,27.09,0,0,0,6.39,1.79c10.23,1.7,20.64,2.06,28.62-5.63,14.62-14.08,30.27-27.08,39.67-46.08,10-20.25,22.08-39.49,33.11-59.25,3.43-6.15,6.41-12.57,9.59-18.86,7.43-11,14.46-22.26,18.35-35,3.57-11.73,7.63-23.5,9.4-35.55,1.91-13,1-26.46,2.15-39.63.83-9.31-3.21-15-10.81-19A73.41,73.41,0,0,0,468.41,247c-2-.65-4.45-.12-6.7-.12l-.43,2,19,10.68c.29,2.59.89,5.67.94,8.76.19,11.8.32,23.59.23,35.39a36.51,36.51,0,0,1-1.43,9.39c-5.42,19.4-11,38.74-16.49,58.11C462.6,374.48,461.79,377.8,460.91,381.11ZM192.05,203.47l2.5,1.7c-6.24,13.78-7.23,27.94-5.3,42.2,6.94,3,12.66.13,14.48-7.39,2.9-11.95,10.06-21.71,15.39-32.44l21-1.3c.92-3.4,1.65-6.16,2.53-9.41,14.23.54,27.83,3.58,42,7.45,1.08-1.85,2.06-3.51,3.72-6.33-7-1.29-12.72-2.68-18.51-3.33-12.45-1.38-25.11-1.51-37.4-3.74-22.05-4-44.1-7.49-66.53-8.4-2.52-.1-5-1.51-7.48-2.32l.3-1.92a28.4,28.4,0,0,1,5.42-.9c11.54.27,23.14.09,34.61,1.2,17.35,1.67,34.62,4.27,51.92,6.49a25.83,25.83,0,0,1,2.88.6c15.78,3.82,31.64,7.33,47.28,11.64,6.31,1.73,12.22,5,18.12,8a9.11,9.11,0,0,1,4.21,4.82c3.17,10.22,1.65,20.11-2.76,31.37l-22.72-20.42C288,227,278.82,232.49,273,243.2c11.2,2.39,15.89-7.83,24.78-9.72,1.17,1.88,2.34,3.78,3.11,5-1.23,3.89-7.18,4.23-4.2,9.17,5.14-.58,9-7.54,15.15-2.69,3.35,4.45,2,9.68,1.3,14.72-1.06,7.51.77,13.87,5.36,20a41.18,41.18,0,0,1,7.1,14.4c3.82,15.74,7.57,31.71-2.63,46.77,5.08,1.6,5.18,1.55,12.78-6.93-.59-11.83-.93-24.83-2-37.78-.68-8.38-6.11-14.86-10.33-21.79-3.51-5.78-6.17-11.87-1.19-18.28l8.43-1.11c.53-3.31,1.4-6.6,1.51-9.91.29-8.86.2-17.73.37-26.59.06-3.12-.26-6.53,1.8-7.57,8.23,2.38,15.06,4.93,22.12,6.24a76.33,76.33,0,0,1,24.18,8.53c6.61,3.76,13.33,7.32,20.08,10.84,3.32,1.74,6.45,4.62,11.09,2.95.15-9.63-3.17-16.87-12.07-21-3.35-1.55-6.78-3-10-4.71a68.29,68.29,0,0,1-6.39-4.43c-4.94,1.17-8.08-2.52-11.13-5.34-7.94-7.36-15.77-14.89-23-22.9-2.6-2.86-4.09-7.15-5-11-1.38-5.94-1.26-12.25-2.76-18.15-2.51-9.87-8.36-17.92-14-26.4-6.47-9.73-14-18.34-21.49-27.06C301,92.8,295.49,87.58,290.71,82.6c-10.33,3.42-11.57,4.31-15,10.34.07,7,1.5,14-.68,20.78-10.49-.56-11.29-1-14.5-7.46,4.94-15.62,6.21-31.78,5-48.5h-7.91c-.72,8.42-.67,16.57-2.3,24.37-1.68,8,.47,16.69-3.76,24.87l-14.4-1.58c-1.56-10.86,1.95-21.6,7.24-23.21l7.28.47c.82-2.68,1.6-5.24,2.39-7.86-8.29-5.72-16.76-5.08-24.93-3.75-13.32,2.18-26.46,5.4-39.74,7.77-15.65,2.8-28.47,10.59-39.58,21.51-14.22,14-27.84,28.59-42.6,42-10.36,9.37-22.2,17.09-33.4,25.51A7.92,7.92,0,0,1,71.11,169C57.44,172.71,47,182,35.63,189.63c-1.83,1.24-2.55,4.11-4.72,7.85,4.23,0,6.72.57,8.77-.12a70.94,70.94,0,0,0,10.6-5c8.07-4.35,16.13-4.22,24.84-1-.27,3.36-.16,6.1-.75,8.67-3.13,13.72-2,27.08,4.42,39.54,6.08,11.86,5.68,24,4.27,36.65-1.16,10.37-3.12,20.93,1.12,31.33,2,4.91,2.82,10.3,4,15C82.06,334,76.67,344.82,70.45,355.13a35.21,35.21,0,0,1-10.24,10.32c-8.27,5.68-17,10.64-25.58,15.9-2.52,1.55-5.11,3-7.51,4.7-3.29,2.34-5.47,5.39-5.54,9.72,6.34,1.9,10.79-1.25,15.3-4.27,3.59-2.4,7-5.39,13.18-4.33v67.61c14.21,4.41,26.87,8.21,39.44,12.3,4,1.31,8.54,2.39,10.21,7.89l-27,14.62c1.36,3,1.87,5.61,3.41,7.24C81,502,86.06,507,91.41,511.69c5.18,4.52,10.75,8.61,16.25,12.76,9.39,7.09,18.94,14,28.26,21.17,4.65,3.59,9.79,7,13.2,11.66,12.67,17.22,24.78,34.86,36.95,52.45,4.76,6.88,7.2,14.43,5,22.95-4,1.9-9.26,1.05-11.42,5.85,3.62,5,3.62,5,12.61,7.07,1,12.21-.17,24.78.49,36.22l-14.52.77c1.84,4.91,3.14,8.41,4.74,12.67l9.8-3.94,3.11,5.22c4.54.44,6.32-1.79,6.49-5.55.09-2.2-.28-4.41-.33-6.62-.37-18.19-1.65-36.42-.8-54.55.82-17.62,3.51-35.19,6-52.69,1.8-12.77.95-26.13,7.65-38a40.24,40.24,0,0,0,4.14-9.42c2.77-10.71,8.43-19.84,14.59-28.8,1.74-2.51,2.9-5.43,4.62-8.74l-10.56-5c6.07-6.63,14.58-9,21.42-15.84-6.36-17.22-19.24-30.59-29.28-46.16a89.88,89.88,0,0,1,14.06,5.08c14.21,6.52,28.94.49,33.86-14.44,1.67-5.07,2.3-10.54,2.88-15.89.85-7.78,1.23-15.61,1.84-23.93,6.56-1.4,9.48-6.46,12.23-11.84a31.88,31.88,0,0,1,4.6-6.64c5.05-5.65,10.29-11.13,16.05-17.31l10.46,1.31c-2-5.25-3.41-9.74-5.53-13.83a14.74,14.74,0,0,0-5.49-5.51c-4.85-2.82-10-5.11-16.49-8.35l-8.16,1.57c1.37,4.53,1.37,4.53,7.13,6.94l10.37,10.7c-.05.55.3,2.29-.38,3.39-3,4.77-6.21,9.35-9.38,14-8.75,3.91-26.26-3.68-28.52-12.82a10.63,10.63,0,0,1,1.71-8.15c2.38-2.9,6-4.79,9.23-7a62.08,62.08,0,0,1,5.46-3c-8.75-2.82-14.87-1-20.65,4.49-12,11.45-19.77,25.62-27.25,40-1.56,3-1.79,6.69-2.8,10.72,6.9-2,7.84-3.27,10.29-8.77,3.08-6.95,6.52-13.74,10.06-20.47,1.47-2.8,3.34-5.61,6.56-5.36L276,360.65c-.14,2.32-.28,4.92-.44,7.63l-10,2.4c-.51,2.55-1.43,5.29-1.52,8.06-.23,6.64.36,13.33-.18,19.94A99.07,99.07,0,0,1,260.58,416a11.32,11.32,0,0,1-10.12,8.61c-9,.87-17.81-.64-25.37-5.64-5.07-3.36-9.45-7.87-13.76-12.23-11.94-12.07-23.51-24.51-35.57-36.45a120.9,120.9,0,0,0-16.46-13.45c-5.06-3.5-7.21-7.93-8.72-13.78-4.84-18.8,4.27-35.72,5.78-53.78l10-3.45-.5-7.37-16.05,4.06c-.72,5.76-1.45,11.72-2.18,17.56-7.55,1.75-9,6.42-9.24,12.44-.37,10.06-1.13,20.12-2.09,30.15-.87,9.08,1.68,14.26,9.89,18.56,6.52,3.41,13.38,6.29,18.29,12.16S175,383.68,182.32,386c2.2.7,4.09,2.4,6.29,3.74-3,11.39-5.78,22.16-8.84,33.87-5.47-4.81-3.73-10-4.15-14.63-.44-4.86-.22-9.82-3.82-13.47-4.32-2.2-8.71-4.38-11.9-7.71-13.62-14.19-26.75-28.86-40.32-43.09-12.2-12.8-22.39-26.92-28.48-43.54-4-11-4.78-22.08,4.4-31.76,2.41-2.54,3.34-6.47,4.94-9.77,1.34-2.77,2.66-5.55,3.67-7.66l9.36-1.7c0-2.37.06-4.28,0-6.19-.27-7.6-1-15.22-.75-22.8a25.94,25.94,0,0,1,6.91-17.39c2.76-2.93,5.26-6.11,8.77-10.24,8.63-3.2,16.71-.09,23.47,7.81,2.39,2.8,5,5.44,7.57,8.07,2.3,2.35,4.84,4,9.35,1.43-2.66-3.41-4.95-6.47-7.36-9.42s-5.13-6-7.7-9l1.15-1.57c5.59,5.5,12.21,3.95,19,3.16l7.4,10.62Zm55.38,285.3c-3.15,15.61-3.74,30.92-8.88,45.16l-12.91.84c-4.07,10.53-8.24,19.94-11.22,29.71-1.36,4.46-.62,9.64-.4,14.48.22,4.64,1.3,9.25,1.45,13.89.26,7.8.07,15.62.07,24.54l4.89,1c2-5.89,3.48-10.83,5.37-15.59a18,18,0,0,0,.29-13.67c-1-2.52-2.2-5-3.09-7.51-2.85-8.1-3.15-15.76,3.1-22.81a19.46,19.46,0,0,0,4.05-8.5c1.18-5.33,4.15-8.59,8.94-10.92,4.12-2,7.91-4.67,10.93-6.48,3.59-12.61.85-25.08,7.72-36.34,6.4,2.84,14.9,1.7,16.57,11.13.81,4.53,1.59,9.24,1.21,13.77-.58,6.81-8.34,6.78-12,10.64,2.41,8.36,3.76,9.25,10.77,7.66,3.38-4.22,6.37-8.44,9.85-12.21,5.34-5.76,10.64-5.95,17.65-1,1.77,8.5-3.3,13.71-9.12,18.62-3.72,3.13-7.34,6.38-11.2,9.74.85,3,1.51,5.43,2.42,8.75,3.27-2.25,5.53-3.65,7.62-5.29,4.26-3.35,8.37-6.87,12.63-10.22,2.75-2.17,5.7-3.91,9.08-2,4.35,9.06-2.34,16.09-4.37,23.93,8.29.44,12.69-2.46,16-9.9,2.5-5.63,1.49-11-3.05-15.51-1.21-1.21-2.7-2.15-4-3.29-8.09-7.21-8.74-10.79-3.85-20.61,1.82-3.66,3.57-7.36,5.54-11.43l-9.76-5.59c-2-9.9-.21-13.2,7.65-18.2,6.18-3.92,12.7-7.91,17.5-13.27,7.84-8.76,14.44-18.64,21.44-28.14.85-1.15.93-2.89,1.37-4.35a12,12,0,0,0-6.92,3.18c-3.62,3.67-7,7.61-10.37,11.48-4.41,5-7.77,11.13-15.56,13.94.44-5.91.53-11.07,1.27-16.12a162.66,162.66,0,0,1,14-46.51c13.71-28.64,28.06-57,42.16-85.42a27.66,27.66,0,0,1,3.27-5.77c12.89-15.17,23.88-32.09,39.26-45,9.59-8.05,9-21.42-3.41-27.33-5.42,2.42-11.43,4.59-15.5,10-13.67,18-27.76,35.75-40.84,54.19-10.79,15.21-20.55,31.16-30.4,47-3,4.75-4.44,10.4-7.09,15.38-3.81,7.15-9,13.7-11.93,21.15a381.12,381.12,0,0,0-13,39.14c-3.13,11.36-5.12,23.06-7.16,34.69-.87,5-.56,10.15-.77,14.63l7.08,6.61c-.79,6.47-1.08,13.61-2.66,20.45-1.62,7-6.42,9.78-12.25,9.36-5.13-7.46-8.82-15.25-14.69-20.69C265.78,488.11,256.91,486.84,247.43,488.77Zm403.74-58.29c5.21,1.07,5.83-1.76,6.41-4.44,2.71-12.5,5.41-25,8-37.55a26.56,26.56,0,0,0,0-5.42c-5.82-1.77-4.43,4.72-7,5.5-9.46-3.37-18.26-7.42-27.51-9.61-17.73-4.18-34,0-47,12.93-9.92,9.87-14.14,22-11.69,36.41,2.26,13.29,9.28,23.63,18.16,33.1,7.92,8.43,16,16.72,23.77,25.27A44.51,44.51,0,0,1,625.92,511c2.58,18.61-9.75,41-29.95,44.66-12.51,2.27-24.48,1.51-36-4.1-18.79-9.18-26.06-33.44-15.3-51.08C549.44,492.63,557,488.87,564,490c-1.23,1.66-3,4-4.68,6.33a14,14,0,0,0,3.24,19.63c6.46,4.51,14.76,2.52,19.26-4.23,8.24-12.36-3-26.59-14.05-27.58a30.58,30.58,0,0,0-32.95,23.5c-5.37,22.71,5.2,41,24.86,49.48,23.59,10.1,46.71,7.86,68-7.14,24-16.92,29.3-46,12.76-70.2-4.41-6.46-9.93-12.2-15.21-18-7.42-8.22-15.31-16-22.58-24.35-7.83-9-11.28-19.36-8.59-31.46,3.46-15.61,18.82-26.07,34.55-22.57,19.49,4.33,28.31,18.11,24.91,33.86C652.59,421.44,652,425.75,651.17,430.48ZM433,128c-1.67,1.24-3,2.14-4.26,3.16-5.11,4.17-6.8,10-4.67,15.81a13.05,13.05,0,0,0,12.6,8.45c6.49,0,11.06-3.32,13.24-9.69a18.06,18.06,0,0,0-8.51-21.49c-10.58-5.78-25.83-2-33.65,8.38-16.14,21.39-5.18,53.5,21.25,62.59,19,6.55,37.87,6.22,55.93-2.78,15.11-7.54,26.71-18.8,30.19-36.08,3.63-18-2.38-33.52-14.54-46.78-9-9.79-18.35-19.2-27.28-29-6.15-6.77-11.6-14.08-13.15-23.49-3.4-20.69,11.88-35.29,28.29-35.18,22.67.15,35.23,14.93,30.74,37.23-.64,3.2-1,6.46-1.55,10,5.76.46,5.95-3.32,6.6-6.16,2.58-11.27,4.95-22.58,7.36-33.89.54-2.52.9-5.08,1.34-7.61-6.17-1.9-5.74,4.34-9.45,5.88-3.46-1.53-7.24-3.25-11.05-4.88-12-5.13-24.2-8.2-37.33-5.22C453.83,22,436.49,40,438.43,62.34c1.25,14.41,8.27,26,18.11,36.24,7.85,8.13,15.66,16.31,23.27,24.68a55.31,55.31,0,0,1,7.3,10.16c11.92,21.4,4.53,45.35-17.28,56.45-14.14,7.19-40.18,5.56-54-10.07C406.29,169,404,156.2,409,142.59,412.9,131.94,422,126.52,433,128Zm97,257.81C542,330.64,553.77,276.51,565.4,223c8.8-3.36,17.82,1.49,25.1-4.57a11.69,11.69,0,0,0-6.06-1.89q-23.21-.58-46.42-1c-4.92-.09-9.84-.05-14.76,0-2.71.06-5.5.23-5.65,4.77,7.47,2.8,15.6-.26,24.1,2.59L506.92,384.08c-8.9,3.72-18.1-1.46-25.39,5.08a17.64,17.64,0,0,0,8,2.22c17,.17,33.94.17,50.92.2a76.29,76.29,0,0,0,9.57-.18c1.43-.18,2.7-1.58,4-2.43l-.6-2ZM624,326.46c6.87,10.62,15.33,13.16,25.09,8.1,7.89-4.09,12.5-15.81,1.47-22.44a38.27,38.27,0,0,1-6.61-4.68,60.77,60.77,0,0,1-5.19-6.21c3.88-7.78,6.16-8.51,15.84-5.4-3.37,2-5.83,4.27-4.24,8.39,1.79,2.41,4.51,3.83,6.78,1.6a9.43,9.43,0,0,0,2.14-7.08c-.75-5.76-5.36-7.88-10.45-8.89-7-1.4-15.22,2.9-17.73,9.1-2.34,5.79-.38,10.67,6.41,15.58,2,1.44,4.27,2.48,6.2,4,5.39,4.22,4.31,11.55-2,14.18a9.71,9.71,0,0,1-10.4-1.38c-.49-.4-.65-1.2-1-1.8l4.87-4.1c1-4.85-.44-7.51-6.63-8l-12.66,14.28-1.53-.3c-.09-2.42-.7-5-.17-7.24,1.53-6.45,3.7-12.75,5.28-19.19,1.93-7.86-2.47-13.67-10.51-14.31a14.9,14.9,0,0,0-13.65,5.79c-1.6,2-3.19,4-5.41,6.84.33-4.65.57-8.15.81-11.53-8-1.61-14.94-.38-14.69,2.63l5.36,2.1c-2,12.69-6.42,24.76-6.78,38.4l7.06-.57c.9-2.9,1.62-5.23,2.35-7.55,3-9.41,6-18.8,12.38-26.6,3.15-3.85,6.6-7.49,12-5.27,3.64,3.66,1.88,7.4,1.15,10.86-1.35,6.5-3.18,12.89-4.61,19.37-1,4.42.94,7.74,4.86,9.75s7.8.63,11-3.42C621.91,329.92,622.83,328.2,624,326.46ZM429.6,243.24c4.78,4.49,5.24,10.18,4.59,15.86s-1.28,11.87-3.37,17.25c-10.15,26.14-20.76,52.1-31.28,78.1-1.38,3.41-2.67,7-4.77,9.95a184.35,184.35,0,0,0-23.25,43.4c-2.07,5.68-5.84,10.73-8.72,16.13-2.18,4.12-5.91,7.65-5.66,13.94,6.81-2.81,10.27-7.75,13.1-13.12,7.34-13.93,14.46-28,21.73-41.92,5.46-10.47,11.84-20.53,16.37-31.37,9.56-22.89,21-45,28.15-68.94,3.11-10.46,6.7-20.57,5.47-31.69-.23-2.13.19-4.32.33-6.87L455,240.74l-.15-1.61c-7.47-1.55-14.82-4.17-23.13-2.44ZM738,460.91c1.67,15-2.69,28.95,3.61,42.49,10.65-6.23,19.5-13.21,26.92-21.8a23.74,23.74,0,0,0,5-9.69,15.49,15.49,0,0,0-1-9.2c-2.41-5.46-9.38-7.07-14.51-4s-5.5,6.64-1,13l7-3c-.7-3.26-1.19-5.49-1.7-7.85,6.58.46,9.23,2.54,8.59,7.59a22.15,22.15,0,0,1-3.82,10.14,59,59,0,0,1-18.62,16.31c-4.91-12.06.21-24.19-1.36-37H727.58c-7.86-.3-10,7.16-15.05,12.49.32-4.68.56-8.2.88-12.9l-14.35,1.59-.09,1.29,5.6,2.17c-2.66,12.78-5.29,25.38-8.19,39.26l8.35-.76c4.91-12.75,6.68-26.35,16.34-36.26l7.37,4.11ZM672.75,296.42c-4.2,20.33-8.34,40.4-12.66,61.35h8.52c1.89-7.69,3.62-14.72,5.38-21.84,4.71.22,8.67,1,12.41.47,13.87-2.1,23.81-13.2,25.33-27.74.63-6-1.19-11.9-7.28-15s-11.88-2.31-17.14,2.1a20.1,20.1,0,0,1-2.24,1.9,7.2,7.2,0,0,1-2.13.47c-.12-1.22-.13-2.19-.31-3.12-.22-1.14-.57-2.25-.82-3.2-7.89-1-14.46.43-14.17,3.16ZM573.33,139.76c1.89,0,2.63-.08,3.35,0,18.41,2.3,31.86-8,34.25-26.19.9-6.89-2.3-13.38-7.93-16.1a15.32,15.32,0,0,0-17.62,3.42c-1.42,1.44-2.57,3.13-4.27,5.23v-9.9a16.24,16.24,0,0,0-14.35,3.22l5.53.62c-3.4,20.75-10,40.58-12.56,61.73h8.42Zm248.31,157c-.85,4.33-1.25,6.94-1.88,9.49-1.58,6.45-3.28,12.87-4.91,19.3-1.09,4.31,0,8.25,3.94,10.14a10.9,10.9,0,0,0,8.23.06c3.8-1.71,6-5.18,5.43-11.2L826,332.46l-1.53-.62c-1.14-13.27,6.29-25.3,6.85-39.72-4.23.46-8,.82-11.73,1.3-3.94.5-7.86,1.11-12.29,1.74.21-4.51.36-7.61.54-11.34h-7.43l-3.13,9.46-5.1,2.92,3.57,4.29c-1.09,5.55-2.07,10.62-3.1,15.68-.78,3.84-2.17,7.64-2.34,11.5-.25,5.74,4.12,9.75,9.12,9.21,5.42-.59,8.61-5,7.87-10.53l-6.07,6.89-2-1c.45-11.36,4-22.14,6.43-33.38Zm107.63,36.75-2.58-.29c-.12-2.06-.72-4.24-.28-6.17,1.61-6.94,3.85-13.74,5.32-20.7,1.9-9-5.78-16.19-14.67-13.46-3.59,1.1-6.77,3.76-9.87,6.07-1.81,1.35-3.08,3.41-5,5.62V293a23.11,23.11,0,0,0-15,2.51l6.17,2.93c-1.77,13-6.62,24.93-6.61,37.86,1.79.22,2.78.57,3.68.41a18.57,18.57,0,0,0,3.34-1.26C899,320.7,901.83,304.74,916,295.7c5.85.92,7.53,3.94,6.51,8.56-.8,3.6-2.1,7.08-2.86,10.68a125.16,125.16,0,0,0-2.42,14.47c-.34,3.79,1.9,6.59,5.4,8a7.83,7.83,0,0,0,9.3-2.61c2-2.39,3-5.54,4.45-8.36l-1.68-.9Zm-73.55,4.91c14.44,0,26.78-16,23.94-31-2.93-15.5-19.19-21.48-31.58-11.63-6.7,5.33-10.26,12.24-11.37,20.74C835.14,328.64,843.49,338.47,855.72,338.44ZM134.52,201.37l-7.27-1.8c-1.79,4.68-3.93,8.82-4.92,13.22a171.68,171.68,0,0,0-3.58,21.82,50.18,50.18,0,0,0,13.94,40.51c1.93,2,5,3,7.61,4.39l1-1.33c-1.32-3.05-2.65-6.09-3.86-8.88,1.65-3,3.06-5.63,5-9.19h-12.8C125.9,240.47,125.36,221.18,134.52,201.37ZM724.32,320.3c5.47-1.17,10.7-1.67,15.46-3.45,8.54-3.18,13.12-12.89,9.92-19.55-3.39-7.05-12.88-8.86-21.33-4.07-.42.25-.85.5-1.25.79-9,6.52-13.66,15.36-13.73,26.41,0,7.12,2.41,13.09,9.66,15.92,6.5,2.54,15.43.21,20.21-5.34,1.06-1.23,1.6-2.9,3-5.57-5.79,4-10.14,7-13.92,9.54C723.27,331.26,721.75,328.23,724.32,320.3Zm-27.7,238.46V545.43h11.25l5.2,4.84,1.16-.72c-.3-2.57-.61-5.13-1-8.36H683.37c8.16,5.7,4,13.44,3.94,20.07s3.88,14.31-4.43,20.33h31.78c.73-3.6,1.35-6.64,2.21-10.89-11.19,7.88-13,8.29-20.4,5.27V564.24c5.2-2.56,9-.64,13.28,2.75V556Zm-6.76-66.32-12.72,8.07c-9.15-4.15-10.61-7.43-7.55-15.4,2.57-.2,5.26-.33,7.93-.62,6.73-.73,12.17-3.62,15.75-9.58,2.6-4.31,3.4-8.68.58-13.19s-7.33-6.49-12-5.18c-5,1.4-10.52,3.49-14.15,7a29.55,29.55,0,0,0-9,24.79c.77,8.22,5.4,13.25,13.21,14.44S686.38,500.23,689.86,492.44Zm157.48-5.77c2.82-.27,5.35-.09,7.59-.81,4.59-1.47,9.51-2.71,13.43-5.34,5.94-4,7.56-11.81,4.62-17s-9.15-7.14-16.24-5.1c-12.37,3.55-20.76,17-19.51,31.22.67,7.65,5.49,13.11,12.57,14.25a17,17,0,0,0,18.87-10.47c-5.92,3.43-10.33,11-18.25,6.09C845.94,496.78,846.26,492.21,847.34,486.67ZM555.76,129.41c-1.74,1.56-3.45,3.16-5.24,4.67-4.07,3.45-9.49,4.18-12.85,1.78s-3.93-6.88-1.4-12.79c2.24-.19,4.66-.35,7.08-.62,6.09-.66,11.34-2.89,15.18-8,3.49-4.61,4.29-10.35,1.83-14.44s-8.16-6.37-13.54-5.47C533,96.9,521.22,115.48,525,129.05a15.68,15.68,0,0,0,13.06,11.39A16.52,16.52,0,0,0,555.76,129.41ZM776.85,301.65c1,5,3.34,6.91,7.52,5.74,3.37-.94,5.28-5.31,4.27-9.13-1.35-5.16-7.16-8.26-13.69-7.32-15.17,2.2-27.2,22.29-22,36.82a15.61,15.61,0,0,0,15.66,10c7.38-.73,13.08-5.38,14.41-12.1-2.8,2.35-5.14,4.95-8,6.6-6.43,3.69-13,.61-13.55-6.75-.9-11.13,3.2-20.79,11.1-28.6,2.94-2.91,6.71-4,10.49-.59Zm49.53,164.64c-1.25,3.35-.78,6.06,2.21,7.19,1.54.58,4.46.33,5.34-.73,1.57-1.88,3.37-5.12,2.71-7-1-2.89-3.57-6.31-6.26-7.26-3.41-1.2-7.78-.87-11.43,0-13.58,3.4-21.4,23.11-18,34.79,2.14,7.43,9.69,12.34,17.2,10.18,4.3-1.23,8.12-4.25,12-6.74.8-.52.81-2.25,1.37-4-4,2.58-7,5.2-10.5,6.64-5.27,2.17-10.28-.65-11-6.2a34.33,34.33,0,0,1,9.9-29.67c3.41-3.5,7.54-3.55,12.16-1.11ZM687.47,109.72c2.8,2.48,5.72,3,8.48.21s2.88-6.24.84-8.79-5.15-4.79-8.14-5.33A20.38,20.38,0,0,0,678,97.3c-10.17,4.11-17.09,16.64-16.56,28.9.34,8,5,13.6,12.53,15.14,7,1.44,14.86-3,18.41-11.3-5.74,5-10.84,9.48-18.81,5.68a25.32,25.32,0,0,1-2.32-4.64c-2.5-8.63,3.24-24.79,10.45-30,3.44-2.51,7-3,12.06-.62C689.23,102.32,685.35,104,687.47,109.72ZM851.11,582.19c12.16,2.06,24.15-8.6,25.24-21.64.57-6.85-1.11-12.69-6.81-16.94a11.8,11.8,0,0,0-13.79-.75A15.35,15.35,0,0,0,849.37,559c1.17,5.21,4.57,8,10.43,8.74,1.73.21,3.44.58,5.46.92C862.56,576.14,857.22,579.38,851.11,582.19ZM152.5,246.72c-.43-4.5,1.92-6.63,4.47-8.63,1.93-1.5,4.23-2.66,5.8-4.47,3.58-4.11,5.19-9.17,3.23-14.32-1.64-4.31-5.41-6.55-10.68-6.16-.8,5.81,5.21,11.54.48,16.34-3.78,3.83-9,6.27-13.68,9.43.77,8.79,9.25,12.15,13.39,18.51-1.21,3-2.35,5.82-3.65,9,5.57,1.66,10.13,2.47,14.4-1.45C165.21,256.17,159.62,251,152.5,246.72ZM834.35,567.63l.94,1.6c-2,2.69-3.65,5.76-6.08,8-2.26,2.06-5.34,3.24-9,5.34,11.45.47,22-7.79,25.06-18.11a19.59,19.59,0,0,0-3.62-18.7,12.38,12.38,0,0,0-15.23-3.67c-5.32,2.41-9.19,10.26-7.92,16.08s5.63,9.13,12.28,9.47C832,567.68,833.17,567.63,834.35,567.63ZM626.25,135.85l-2.65-1.13c.41-11,3.8-21.5,6.11-31.77l8.77-2.71-7-2.92v-10h-6.84l-3.28,10-4.86,2.38,3.67,4.45c-1.88,8.44-3.89,16.52-5.44,24.68-1.34,7,3.43,12.46,9.5,11.31,4.52-.85,7.06-4.31,7.91-11.22Zm20.28-34.41c-1,3.63-2,6.64-2.79,9.71-1.57,6.43-3.49,12.82-4.37,19.35-.79,6,3.07,10,8.21,9.81s8.88-4.65,8.57-10.59l-6.36,6.91-2-.84a42,42,0,0,1,.52-6.67c2.09-8.83,4.44-17.61,6.56-26.43a53.51,53.51,0,0,0,.66-7L640.49,98l0,1.51Zm139.06,362c-1.44,5.16-2.77,9.59-3.89,14.08-1.25,5-2.78,9.93-3.33,15-.7,6.44,2.56,10.21,7.72,10.09s8.08-4,8.14-11l-5.37,7.27-2-.68a45.09,45.09,0,0,1,.41-6.6c1.77-8.63,3.8-17.2,5.56-25.83a46.18,46.18,0,0,0,.41-6.9c-9.93-.18-13.4.61-13.33,3.11Zm100.9,118.94,2.16,1.47c1.3-.83,3.35-1.39,3.79-2.55,4.73-12.47,10.59-24.61,13.31-38.76h-24.1c-.93,3.37-1.71,6.2-2.87,10.38,6.9-3.55,12.46-4.53,19-2.24C893.94,561.42,890.22,571.9,886.49,582.37ZM721,573.94v7.76c2.47.29,4.4.61,6.35.73,6.8.41,11.36-2,12.6-6.49,1.15-4.17-1.25-7.63-7.51-11.25-2.32-1.34-4.41-3.06-7-4.87,5.74-5.34,8.45.38,12.87,2.38-.19-3.3-.31-5.54-.44-7.78-2.22-.42-3.66-.71-5.09-1-6.17-1.1-9.82.41-11.62,4.8-1.89,4.59,0,8.62,5.67,12,2.42,1.45,4.82,3,7.33,4.52C730.08,579.53,730.08,579.53,721,573.94Zm87.68,8c-.78-3.29-1.92-6.21-2.08-9.19-.45-8.53-.49-17.09-.76-25.63-.06-1.82-.43-3.63-.78-6.47l-11.49,4.43,5,3.18c1.66,17.15.93,27.44-2.55,33.68Zm-600-206c4.29,1.41,6.48-.18,6.87-3.23,1.62-12.65,3-25.33,4.3-38,.1-.93-.78-2-1.45-3.52C209.22,345.54,209.24,360.82,208.65,375.93ZM747.8,581.65c5.14,1.36,8.74.71,10.84-4.58l-6-1V558.82l4.92-3.29-4.62-3c-.61-2.18-1.17-4.17-2-7.14l-9.05,9.88,3,4.41C745.38,567.19,742.61,574.77,747.8,581.65ZM404.89,392.47c.6,4.53,3.12,4.74,6.47,4.18,10.74-1.8,19.16-8.58,28.58-13.18.63-.31.79-1.59,1.13-2.35C433.59,375.9,419.74,384,404.89,392.47ZM342.15,581.4c3.78.08,8.22,2.68,9.62-2.31-4-7.88-7.68-15.1-11.61-22.85l-8.41,2.86,7.44,11.68c0,5.54-6.33,9.51-4.79,16.76ZM384.63,431h20.94l7-12.41-10.26-5.2c-.66,3.21-1.1,5.31-1.35,6.51C396.65,425.47,387.61,421.65,384.63,431Zm-114.94-345c10-.92,15.88-11,13.39-22.42l-5.62-1.39C274.81,70.26,272.36,77.77,269.69,85.94Zm3.95,184.74c-8.45-.9-11,5.57-14.95,9.09-2.72,2.4-6.34,5.71-3.24,11.67C262.12,285,270.3,280.93,273.64,270.68ZM418.39,402.46c-5.88-1.35-11.25-2.08-16.05,1.93l8.15,8.52C414.3,411,418.25,408.89,418.39,402.46Zm-23.46,36.28c-4.87-3-9.64-1.85-14.76.31v4.6C390.45,446.51,393.09,445.64,394.93,438.74ZM266.38,515.48l-10.15,2,.75,6.34h9.4ZM837,277c-2.88-2.07-4.54-4.17-6.45-4.43-3.21-.44-4.92,2-4.75,5.12.15,2.86,2.22,4.78,4.91,4.14C832.67,281.34,834.21,279.22,837,277ZM652.48,76.24c-2.58,2.67-3.68,5.36-.91,7.92,1,.93,3.78,1.48,4.56.81,1.44-1.23,2.86-3.54,2.75-5.3C658.67,76.35,656,75.45,652.48,76.24ZM788.57,437.73c.25,4.36.36,6.38.44,7.85,3.12,2.6,5.79,2.61,7.57.1.86-1.22,1-4.4.11-5.09C795,439.23,792.43,439,788.57,437.73ZM762.72,581.3c3.24,1.57,5.75,1.24,6.26-2.27.16-1.17-2-3.79-3-3.8C762.5,575.21,761.52,577.55,762.72,581.3ZM304.92,311.16l-1.53,2.16c1,2.76,2.27,5,7.78,2.4Zm-6.14-105.34.56-2.08-7.38-2C293.3,205.93,295.37,207.77,298.78,205.82Zm362-37.79,5-7.25C661.19,160.91,659.65,162.87,660.76,168Z"/><path d="M192.05,203.47l-10.82,1.27-7.4-10.62c-6.75.79-13.37,2.34-19-3.16l-1.15,1.57c2.57,3,5.2,6,7.7,9s4.7,6,7.36,9.42c-4.51,2.54-7.05.92-9.35-1.43-2.58-2.63-5.18-5.27-7.57-8.07-6.76-7.9-14.84-11-23.47-7.81-3.51,4.13-6,7.31-8.77,10.24a25.94,25.94,0,0,0-6.91,17.39c-.26,7.58.48,15.2.75,22.8.07,1.91,0,3.82,0,6.19l-9.36,1.7c-1,2.11-2.33,4.89-3.67,7.66-1.6,3.3-2.53,7.23-4.94,9.77-9.18,9.68-8.44,20.72-4.4,31.76,6.09,16.62,16.28,30.74,28.48,43.54,13.57,14.23,26.7,28.9,40.32,43.09,3.19,3.33,7.58,5.51,11.9,7.71,3.6,3.65,3.38,8.61,3.82,13.47.42,4.6-1.32,9.82,4.15,14.63,3.06-11.71,5.87-22.48,8.84-33.87-2.2-1.34-4.09-3-6.29-3.74-7.34-2.33-13-6.89-17.8-12.65s-11.77-8.75-18.29-12.16c-8.21-4.3-10.76-9.48-9.89-18.56,1-10,1.72-20.09,2.09-30.15.23-6,1.69-10.69,9.24-12.44.73-5.84,1.46-11.8,2.18-17.56l16.05-4.06.5,7.37-10,3.45c-1.51,18.06-10.62,35-5.78,53.78,1.51,5.85,3.66,10.28,8.72,13.78a120.9,120.9,0,0,1,16.46,13.45c12.06,11.94,23.63,24.38,35.57,36.45,4.31,4.36,8.69,8.87,13.76,12.23,7.56,5,16.4,6.51,25.37,5.64A11.32,11.32,0,0,0,260.58,416a99.07,99.07,0,0,0,3.26-17.29c.54-6.61,0-13.3.18-19.94.09-2.77,1-5.51,1.52-8.06l10-2.4c.16-2.71.3-5.31.44-7.63l-24.1-20.48c-3.22-.25-5.09,2.56-6.56,5.36-3.54,6.73-7,13.52-10.06,20.47-2.45,5.5-3.39,6.76-10.29,8.77,1-4,1.24-7.72,2.8-10.72,7.48-14.41,15.29-28.58,27.25-40,5.78-5.52,11.9-7.31,20.65-4.49a62.08,62.08,0,0,0-5.46,3c-3.2,2.2-6.85,4.09-9.23,7a10.63,10.63,0,0,0-1.71,8.15c2.26,9.14,19.77,16.73,28.52,12.82,3.17-4.66,6.42-9.24,9.38-14,.68-1.1.33-2.84.38-3.39l-10.37-10.7c-5.76-2.41-5.76-2.41-7.13-6.94l8.16-1.57c6.49,3.24,11.64,5.53,16.49,8.35a14.74,14.74,0,0,1,5.49,5.51c2.12,4.09,3.49,8.58,5.53,13.83l-10.46-1.31c-5.76,6.18-11,11.66-16.05,17.31a31.88,31.88,0,0,0-4.6,6.64c-2.75,5.38-5.67,10.44-12.23,11.84-.61,8.32-1,16.15-1.84,23.93-.58,5.35-1.21,10.82-2.88,15.89-4.92,14.93-19.65,21-33.86,14.44a89.88,89.88,0,0,0-14.06-5.08c10,15.57,22.92,28.94,29.28,46.16-6.84,6.85-15.35,9.21-21.42,15.84l10.56,5c-1.72,3.31-2.88,6.23-4.62,8.74-6.16,9-11.82,18.09-14.59,28.8a40.24,40.24,0,0,1-4.14,9.42c-6.7,11.83-5.85,25.19-7.65,38-2.47,17.5-5.16,35.07-6,52.69-.85,18.13.43,36.36.8,54.55.05,2.21.42,4.42.33,6.62-.17,3.76-2,6-6.49,5.55l-3.11-5.22-9.8,3.94c-1.6-4.26-2.9-7.76-4.74-12.67l14.52-.77c-.66-11.44.48-24-.49-36.22-9-2-9-2-12.61-7.07,2.16-4.8,7.41-3.95,11.42-5.85,2.23-8.52-.21-16.07-5-22.95-12.17-17.59-24.28-35.23-36.95-52.45-3.41-4.63-8.55-8.07-13.2-11.66-9.32-7.2-18.87-14.08-28.26-21.17-5.5-4.15-11.07-8.24-16.25-12.76C86.06,507,81,502,76.11,496.83c-1.54-1.63-2-4.24-3.41-7.24l27-14.62c-1.67-5.5-6.19-6.58-10.21-7.89-12.57-4.09-25.23-7.89-39.44-12.3V387.17c-6.2-1.06-9.59,1.93-13.18,4.33-4.51,3-9,6.17-15.3,4.27.07-4.33,2.25-7.38,5.54-9.72,2.4-1.71,5-3.15,7.51-4.7,8.55-5.26,17.31-10.22,25.58-15.9a35.21,35.21,0,0,0,10.24-10.32c6.22-10.31,11.61-21.12,17.78-32.57-1.23-4.69-2-10.08-4-15-4.24-10.4-2.28-21-1.12-31.33,1.41-12.69,1.81-24.79-4.27-36.65-6.39-12.46-7.55-25.82-4.42-39.54.59-2.57.48-5.31.75-8.67-8.71-3.21-16.77-3.34-24.84,1a70.94,70.94,0,0,1-10.6,5c-2,.69-4.54.12-8.77.12,2.17-3.74,2.89-6.61,4.72-7.85C47,182,57.44,172.71,71.11,169a7.92,7.92,0,0,0,2.67-1.23c11.2-8.42,23-16.14,33.4-25.51,14.76-13.36,28.38-28,42.6-42,11.11-10.92,23.93-18.71,39.58-21.51,13.28-2.37,26.42-5.59,39.74-7.77,8.17-1.33,16.64-2,24.93,3.75-.79,2.62-1.57,5.18-2.39,7.86l-7.28-.47c-5.29,1.61-8.8,12.35-7.24,23.21l14.4,1.58c4.23-8.18,2.08-16.84,3.76-24.87,1.63-7.8,1.58-15.95,2.3-24.37h7.91c1.2,16.72-.07,32.88-5,48.5,3.21,6.48,4,6.9,14.5,7.46,2.18-6.78.75-13.83.68-20.78,3.48-6,4.72-6.92,15-10.34,4.78,5,10.26,10.2,15.18,15.91,7.51,8.72,15,17.33,21.49,27.06,5.64,8.48,11.49,16.53,14,26.4,1.5,5.9,1.38,12.21,2.76,18.15.91,3.89,2.4,8.18,5,11,7.27,8,15.1,15.54,23,22.9,3.05,2.82,6.19,6.51,11.13,5.34a68.29,68.29,0,0,0,6.39,4.43c3.24,1.75,6.67,3.16,10,4.71,8.9,4.09,12.22,11.33,12.07,21-4.64,1.67-7.77-1.21-11.09-2.95-6.75-3.52-13.47-7.08-20.08-10.84a76.33,76.33,0,0,0-24.18-8.53c-7.06-1.31-13.89-3.86-22.12-6.24-2.06,1-1.74,4.45-1.8,7.57-.17,8.86-.08,17.73-.37,26.59-.11,3.31-1,6.6-1.51,9.91l-8.43,1.11c-5,6.41-2.32,12.5,1.19,18.28,4.22,6.93,9.65,13.41,10.33,21.79,1,12.95,1.38,25.95,2,37.78-7.6,8.48-7.7,8.53-12.78,6.93,10.2-15.06,6.45-31,2.63-46.77a41.18,41.18,0,0,0-7.1-14.4c-4.59-6.15-6.42-12.51-5.36-20,.71-5,2.05-10.27-1.3-14.72-6.15-4.85-10,2.11-15.15,2.69-3-4.94,3-5.28,4.2-9.17-.77-1.25-1.94-3.15-3.11-5-8.89,1.89-13.58,12.11-24.78,9.72,5.87-10.71,15.06-16.25,24.7-22.14l22.72,20.42c4.41-11.26,5.93-21.15,2.76-31.37a9.11,9.11,0,0,0-4.21-4.82c-5.9-3-11.81-6.29-18.12-8-15.64-4.31-31.5-7.82-47.28-11.64a25.83,25.83,0,0,0-2.88-.6c-17.3-2.22-34.57-4.82-51.92-6.49-11.47-1.11-23.07-.93-34.61-1.2a28.4,28.4,0,0,0-5.42.9l-.3,1.92c2.49.81,5,2.22,7.48,2.32,22.43.91,44.48,4.39,66.53,8.4,12.29,2.23,25,2.36,37.4,3.74,5.79.65,11.49,2,18.51,3.33-1.66,2.82-2.64,4.48-3.72,6.33-14.13-3.87-27.73-6.91-42-7.45-.88,3.25-1.61,6-2.53,9.41l-21,1.3C213.79,218.27,206.63,228,203.73,240c-1.82,7.52-7.54,10.35-14.48,7.39-1.93-14.26-.94-28.42,5.3-42.2ZM157.89,517l.1.12c-1.71-10.22-7.21-18.79-12.45-27.35-8-13-16.3-25.78-24.82-38.43-3.92-5.84-8.65-11.14-13.11-16.81-3.09,1.7-5.25,2.84-7.37,4.05-7.63,4.38-14.7,10-24.24,9.9-1.43,0-2.89,1.61-5.11,2.94,8,4.1,14.44-1.6,21.53-.51l-1.23,6.56,7,4.55,17.29-5.72,1.26,1.37-3.87,10.21,6.19,7.78,9.62,4.46c-6.7,3.18-10.72,7.6-17.78,7.16,1.08-3.2,1.85-5.46,3.07-9.08l-6.69,4.38v6.49l-16.64,4.47c1.68,7.48,2.18,9,5.93,9.52,6.38.9,10.22,4.2,12.43,10,.38,1,1.69,1.62,2.64,2.48,8.55-1.56,14.27-9.57,23.46-10.16-.2,8.68-11.58,7.4-12,16.19l21.14,18.15c5.43-1,7.72-8.1,13.23-3.66-.64,4.51-8.33,4.92-5.72,11.15l9.63,1.11V559l7.09,4.51c5.66-.1,8.27-7.72,14.77-2.52l-11.69,11.39,10.32,3.21-3.74,7.83c3.37,4.57,6.5,8.84,9.6,13.06,4-.9,4.08-3.49,4-6.34-.12-7.86-.7-15.77,0-23.55.69-7.24-1.67-12.8-5.93-18.26-7.06-9.07-13.8-18.4-20.67-27.63l.94-.71ZM142,436.76c1.21-2.46,2.78-6,4.69-9.43,3.14-5.55,6.54-10.95,9.76-16.45,4.08-7,4.21-12.29,0-16.95-10-11.11-20.22-22.07-30.35-33.09-5.65-6.14-11.29-12.29-17-18.39-4-4.35-8.2-8.61-12.53-13.16L76.4,364.57c7.68,13.05,14.46,24.71,21.38,36.29,7.65,12.83,14,26.39,24.37,37.59,5.6,6.06,9.53,13.65,14.26,20.52a41.85,41.85,0,0,0,3,3.4c6-2,8-7,10.87-12.21C147.84,446.23,145.39,442.26,142,436.76Zm26.54,5.05c-3.91,4.15-6.68,8-10.27,10.74-9.58,7.39-13.69,21.39-5.17,33.43,5.39,7.62,10,15.81,15.36,23.45,4.46,6.33,9.54,12.23,14.35,18.31l1.31-.76c-.59-2-.84-4.24-1.83-6.05A45.08,45.08,0,0,1,177,497.47a18.28,18.28,0,0,0-1.83-7.8c-3.6-7.81-7.59-15.44-11.26-23.22-.91-1.92-1.2-4.13-2.1-7.39,6.09,1.86,7.82,5.79,10,9.25C181,483,185.6,499.2,187.76,516.24c.35,2.79,1.53,5.47,2.33,8.2l1.8-.53c-1.27-8.64-1.32-17.71-4.11-25.83-4.24-12.31-4.46-25.13-7-37.63-.39-1.94.42-4.13.58-5.42,4.89-3.95,8.77-2.56,12.22.26.88-6.71,2-12.75,2.38-18.84.39-6.27.08-12.58.08-19.94l9.43,1.33v28c5.23,3.88,9.48,2.79,14.23.2-.16-2.4-.32-4.75-.48-7.15l-7.06-2.78c-.21-2.49-.47-5.13-.63-7.78-.43-6.69-1.28-13.22-5.75-18.69-3.23-3.94-6.84-6.36-12.9-3.51-1.15,3.67-2.41,7.88-3.79,12-1.62,4.89-3.33,9.74-5,14.59-1.28,3.66-2.94,7.23-3.8,11-1.27,5.47-2.39,6.8-9.14,8C170.4,448.85,169.61,445.87,168.54,441.81Zm50,58.1,8.8-2c-7.21-4.18-17.63-4.23-16.84-16.83,10-3.21,21.68-3.37,28-13.6-1.1-8.73-4.23-12.51-12.15-13.52-6-.78-12.17-.7-17.65-1-6.21,1.84-4,7-5.64,11.88l-10.08,3.51c4.05,24.12,8,47.73,12,71.55l7.2-13.39c-.71-3-1.25-5.38-1.88-8.07,5.88-1.87,9.58-5.44,10.53-11.69C220.19,505,219.5,502.93,218.5,499.91ZM60.77,395.2v30.57c4.09-.76,7-.87,9.62-1.9,3.16-1.26,6-3.44,9-5,4-2,8-4.76,13-2.77-.11,1.05.06,2.19-.29,2.39C81.94,424.22,71.7,429.81,61,435.7v8.1c16.41-.54,29.9-6.35,42.44-17.61-3-5.33-5.89-10.66-9-15.86-4.88-8.2-10-16.24-14.8-24.51-2.9-5.05-5.28-10.41-8.45-16.74l-13.74,8.77c.83,4.1,1.53,7.61,2.27,11.29l16.1-.85C72.52,396.43,65.33,393.52,60.77,395.2Zm148.39-288c-.31.94-1,2.09-1,3.2.35,6.3.88,12.59,1.3,18.12l-9.85,13.34c4.2,5.59,9.56,7.21,14,4.49,8.9-5.39,3.16-12.37,1.36-18.89l6.45-5.1a111.86,111.86,0,0,1,1.57-11.2c1-4.2,1.79-8.78,4.11-12.24,3.73-5.56,3.45-10.83,1.56-17.65l-15.34,1.5c-5.94,9.33-4.83,13.26,6.36,22.14Zm112,28.08c-2.45,7.3-5.32,12.69-5.84,18.31-.51,5.47,1.39,11.17,2.24,16.77l-8.1,1.31c-1.31,5.39-5.5,10.35-2,15.65,3.64,5.49,9.9,5.51,15.87,5.63,5.31-8.2,1.78-19.29,10-25.94v-8.15l-1.24.42ZM249,127.21c4.61-7,3.67-11.07-3-13.88-4.29-1.81-8.72-3.42-14.69-1,.23,12.36-6.39,24.29-5,37.51,6.65,3,12.62,2,19.52.91.82-4.11,1.63-8.22,2.58-13l-18.64-4.22c1-2.72,1.72-4.63,2.35-6.31Zm55,18.07c-7.71,4.22-8.78,10.48-8.34,17.89.17,2.86-2.75,5.91-4.3,8.85s-3.05,5.7-5.06,9.45l9.95,2.88c5.36-11.41,10.19-30.72,10.35-40.82,9.52-12.06,8.27-26-3.12-30-1.54,8.17-3.07,16.28-4.53,24Zm-19.39-3.47c5.44-4.72,11.27-7.88,8.14-15.79L287,123.35c-4.46,2-4.55,5.38-5,8.89a114.37,114.37,0,0,1-2.84,15.85c-1.1,4-1.67,7.61.89,11.24.78,1.11,1,2.6,1.62,4.23-5.08,2.75-11.36,3.22-13.87,9.1,2.51,6.35,8.42,8.14,12.86,3.39,2.42-2.58,4-6.15,5.27-9.53a109.29,109.29,0,0,0,3.54-12.78c.56-2.32.81-4.71,1.3-7.64ZM202,87.1c-17.37.68-17.37.68-19.41,3.53,1.75,4.05,8.82,2.64,8.94,9.49l-11,2.55c-4,4.19-3.91,9.06-2.24,15L195.75,121c1.3-4.54,2.78-8.17,3.29-11.93.48-3.57-.49-7.33,0-10.9S200.88,91,202,87.1Zm-60.09,49.59c6.9,4.59,13.54,5.63,21.07,3.82,1.23-4.51,2.36-8.69,3.61-13.32-7.29-5.16-14.75-4.87-22.69-4.18C143.13,128.15,142.51,132.44,141.89,136.69Zm51.68-6.94c-5.36-6.19-10.55-5.93-16.11-4.73-4.18,4.89-3.53,10.4-2.61,16.22,5.11,4.46,10.8,3.25,17.63,2C192.86,138.5,193.24,133.79,193.57,129.75Zm-86.84,31.57c14.89,4.52,24.93-.31,21-12.88L115.06,143C109.09,148.08,107.56,154.28,106.73,161.32Zm47,2.26c4.29-3.18,7.79-6.14,5-11.89-6.44-3.65-13.21-4.65-21.41-2.75-.43,4.1-.86,8.22-1.34,12.74ZM169,115.79v-19c-7.89-.61-18,8.73-18.91,17.23C156.18,116,162.21,118.49,169,115.79Zm-4.24,296.36c-3.93,7-7.72,13.17-10.85,19.62-2.19,4.54-.81,7.13,5.07,11.17,2.71-2.32,6.06-4.45,8.37-7.39,1.41-1.81,1.82-4.9,1.64-7.34a80.55,80.55,0,0,0-2.28-11.94A24,24,0,0,0,164.76,412.15ZM271.92,143.52l-7.32-5.61c-6,.76-10.3,2.87-11.56,8.78,3.09,7.31,7.6,9.72,16.22,8.24C270.11,151.28,271,147.36,271.92,143.52Zm-54.78,24.1c7.7,5.17,14.45,1.21,21.88,1.56-.23-3.21-.4-5.5-.61-8.33l-18.92-4.55C218.57,160.75,217.9,164,217.14,167.62Zm-25.82,0h15.56c3.83-6.57,3.83-6.57,1.53-11.94l-13.61-2.35ZM274.59,119H260.93c-1.91,6.29-2.82,11.61,3.8,15.49l10.52-1.17C275,128.1,274.8,123.5,274.59,119Zm58.92,78.34c5.08,3.11,9.83,4.69,16.16,2.48l-13.15-21C331.54,184.85,331.94,190.74,333.51,197.33Zm-37.64-82.06C297.17,105,293,99,283.61,97.33c.85,7.33-2,15.06,4.73,21.4ZM245.15,171.6c7,3.5,12.51,2.92,17.67-.91,2.42-1.8,3.34-4.19.8-7.77l-14.93-1.85Zm-76.4-9c10.48,2.76,13.51,1.1,15.8-7.89-7-3.65-9.6-3.68-15.8.09Zm-52.88,12.85c-6.43.29-12.52.32-18.62,4,4.56,4.93,9,5,13.7,3.58C114.32,182,116.18,179.67,115.87,175.44Zm29.82,1.47c-6.36-3.64-11.52-.73-17.15,1.06,1.43,2.13,3.36,4.39,4.84,4.13C137.47,181.38,142.87,183.33,145.69,176.91Zm-11.85-49.43c-3.62,3.82-7.43,6.06-7,11.51C132.94,137.62,133.93,136.11,133.84,127.48Z"/><path d="M247.43,488.77c9.48-1.93,18.35-.66,24.74,5.26,5.87,5.44,9.56,13.23,14.69,20.69,5.83.42,10.63-2.31,12.25-9.36,1.58-6.84,1.87-14,2.66-20.45l-7.08-6.61c.21-4.48-.1-9.66.77-14.63,2-11.63,4-23.33,7.16-34.69a381.12,381.12,0,0,1,13-39.14c3-7.45,8.12-14,11.93-21.15,2.65-5,4.13-10.63,7.09-15.38,9.85-15.84,19.61-31.79,30.4-47,13.08-18.44,27.17-36.17,40.84-54.19,4.07-5.37,10.08-7.54,15.5-10,12.37,5.91,13,19.28,3.41,27.33-15.38,12.89-26.37,29.81-39.26,45a27.66,27.66,0,0,0-3.27,5.77c-14.1,28.45-28.45,56.78-42.16,85.42a162.66,162.66,0,0,0-14,46.51c-.74,5.05-.83,10.21-1.27,16.12,7.79-2.81,11.15-9,15.56-13.94,3.41-3.87,6.75-7.81,10.37-11.48a12,12,0,0,1,6.92-3.18c-.44,1.46-.52,3.2-1.37,4.35-7,9.5-13.6,19.38-21.44,28.14-4.8,5.36-11.32,9.35-17.5,13.27-7.86,5-9.65,8.3-7.65,18.2l9.76,5.59c-2,4.07-3.72,7.77-5.54,11.43-4.89,9.82-4.24,13.4,3.85,20.61,1.28,1.14,2.77,2.08,4,3.29,4.54,4.51,5.55,9.88,3.05,15.51-3.3,7.44-7.7,10.34-16,9.9,2-7.84,8.72-14.87,4.37-23.93-3.38-1.87-6.33-.13-9.08,2-4.26,3.35-8.37,6.87-12.63,10.22-2.09,1.64-4.35,3-7.62,5.29-.91-3.32-1.57-5.7-2.42-8.75,3.86-3.36,7.48-6.61,11.2-9.74,5.82-4.91,10.89-10.12,9.12-18.62-7-4.91-12.31-4.72-17.65,1-3.48,3.77-6.47,8-9.85,12.21-7,1.59-8.36.7-10.77-7.66,3.62-3.86,11.38-3.83,12-10.64.38-4.53-.4-9.24-1.21-13.77-1.67-9.43-10.17-8.29-16.57-11.13-6.87,11.26-4.13,23.73-7.72,36.34-3,1.81-6.81,4.48-10.93,6.48-4.79,2.33-7.76,5.59-8.94,10.92a19.46,19.46,0,0,1-4.05,8.5c-6.25,7.05-5.95,14.71-3.1,22.81.89,2.55,2.11,5,3.09,7.51a18,18,0,0,1-.29,13.67c-1.89,4.76-3.36,9.7-5.37,15.59l-4.89-1c0-8.92.19-16.74-.07-24.54-.15-4.64-1.23-9.25-1.45-13.89-.22-4.84-1-10,.4-14.48,3-9.77,7.15-19.18,11.22-29.71l12.91-.84C243.69,519.69,244.28,504.38,247.43,488.77ZM391.49,294l28.64-32.22-1.58-1.65c-2.86,2.45-5.87,4.74-8.57,7.36-4.87,4.74-9.41,9.83-14.37,14.48C392.41,284.93,389.94,288,391.49,294Zm-28,40.25,9.93-14.3C369,323.56,363.78,326.65,363.47,334.22Z"/><path d="M651.17,430.48c.82-4.73,1.42-9,2.34-13.29,3.4-15.75-5.42-29.53-24.91-33.86-15.73-3.5-31.09,7-34.55,22.57-2.69,12.1.76,22.47,8.59,31.46,7.27,8.34,15.16,16.13,22.58,24.35,5.28,5.83,10.8,11.57,15.21,18C657,504,651.63,533,627.67,549.94c-21.25,15-44.37,17.24-68,7.14-19.66-8.43-30.23-26.77-24.86-49.48a30.58,30.58,0,0,1,32.95-23.5c11,1,22.29,15.22,14.05,27.58-4.5,6.75-12.8,8.74-19.26,4.23a14,14,0,0,1-3.24-19.63c1.72-2.34,3.45-4.67,4.68-6.33-7-1.08-14.59,2.68-19.36,10.5-10.76,17.64-3.49,41.9,15.3,51.08,11.52,5.61,23.49,6.37,36,4.1,20.2-3.66,32.53-26,29.95-44.66a44.51,44.51,0,0,0-11.54-24.3c-7.79-8.55-15.85-16.84-23.77-25.27-8.88-9.47-15.9-19.81-18.16-33.1-2.45-14.39,1.77-26.54,11.69-36.41,13-12.93,29.22-17.11,47-12.93,9.25,2.19,18,6.24,27.51,9.61,2.59-.78,1.2-7.27,7-5.5a26.56,26.56,0,0,1,0,5.42c-2.58,12.54-5.28,25.05-8,37.55C657,428.72,656.38,431.55,651.17,430.48Z"/><path d="M433,128c-11-1.44-20.08,4-24,14.63-5,13.61-2.68,26.42,6.85,37.21,13.83,15.63,39.87,17.26,54,10.07,21.81-11.1,29.2-35.05,17.28-56.45a55.31,55.31,0,0,0-7.3-10.16c-7.61-8.37-15.42-16.55-23.27-24.68-9.84-10.21-16.86-21.83-18.11-36.24C436.49,40,453.83,22,475.08,17.21c13.13-3,25.36.09,37.33,5.22,3.81,1.63,7.59,3.35,11.05,4.88,3.71-1.54,3.28-7.78,9.45-5.88-.44,2.53-.8,5.09-1.34,7.61-2.41,11.31-4.78,22.62-7.36,33.89-.65,2.84-.84,6.62-6.6,6.16.54-3.56.91-6.82,1.55-10,4.49-22.3-8.07-37.08-30.74-37.23C472,21.73,456.73,36.33,460.13,57c1.55,9.41,7,16.72,13.15,23.49,8.93,9.82,18.31,19.23,27.28,29,12.16,13.26,18.17,28.75,14.54,46.78-3.48,17.28-15.08,28.54-30.19,36.08-18.06,9-36.88,9.33-55.93,2.78-26.43-9.09-37.39-41.2-21.25-62.59,7.82-10.36,23.07-14.16,33.65-8.38a18.06,18.06,0,0,1,8.51,21.49c-2.18,6.37-6.75,9.72-13.24,9.69a13.05,13.05,0,0,1-12.6-8.45c-2.13-5.85-.44-11.64,4.67-15.81C430,130.1,431.31,129.2,433,128Z"/><path d="M530,385.77,553.48,387l.6,2c-1.34.85-2.61,2.25-4,2.43a76.29,76.29,0,0,1-9.57.18c-17,0-34,0-50.92-.2a17.64,17.64,0,0,1-8-2.22c7.29-6.54,16.49-1.36,25.39-5.08L541.71,223c-8.5-2.85-16.63.21-24.1-2.59.15-4.54,2.94-4.71,5.65-4.77,4.92-.09,9.84-.13,14.76,0q23.21.42,46.42,1a11.69,11.69,0,0,1,6.06,1.89c-7.28,6.06-16.3,1.21-25.1,4.57C553.77,276.51,542,330.64,530,385.77Z"/><path d="M460.83,381c-3.18,6.29-6.16,12.71-9.59,18.86-11,19.76-23.09,39-33.11,59.25-9.4,19-25.05,32-39.67,46.08-8,7.69-18.39,7.33-28.62,5.63a27.09,27.09,0,0,1-6.39-1.79c-5.79-2.51-11.58-4-17.81-1.58-.8.31-1.86-.05-3.35-.12.18-2.37.34-4.42.51-6.66l-4.6-3.41c2.19-12.4,11.14-17.47,23.32-14.13-.68,6.67-8.32,5.13-11.34,9.42a13.37,13.37,0,0,0,1.56,3.22c10.33,11.65,30.11,12,40.93.88,17.35-17.82,34.14-36.1,47.7-57.1q17-26.32,34.47-52.35c1.57-2.35,4-4.1,6.07-6.13Z"/><path d="M624,326.46c-1.12,1.74-2,3.46-3.22,5-3.17,4.05-7.18,5.35-11,3.42s-5.84-5.33-4.86-9.75c1.43-6.48,3.26-12.87,4.61-19.37.73-3.46,2.49-7.2-1.15-10.86-5.42-2.22-8.87,1.42-12,5.27-6.37,7.8-9.41,17.19-12.38,26.6-.73,2.32-1.45,4.65-2.35,7.55l-7.06.57c.36-13.64,4.8-25.71,6.78-38.4l-5.36-2.1c-.25-3,6.64-4.24,14.69-2.63-.24,3.38-.48,6.88-.81,11.53,2.22-2.82,3.81-4.83,5.41-6.84a14.9,14.9,0,0,1,13.65-5.79c8,.64,12.44,6.45,10.51,14.31-1.58,6.44-3.75,12.74-5.28,19.19-.53,2.28.08,4.82.17,7.24l1.53.3,12.66-14.28c6.19.51,7.67,3.17,6.63,8l-4.87,4.1c.31.6.47,1.4,1,1.8a9.71,9.71,0,0,0,10.4,1.38c6.35-2.63,7.43-10,2-14.18-1.93-1.5-4.21-2.54-6.2-4-6.79-4.91-8.75-9.79-6.41-15.58,2.51-6.2,10.73-10.5,17.73-9.1,5.09,1,9.7,3.13,10.45,8.89a9.43,9.43,0,0,1-2.14,7.08c-2.27,2.23-5,.81-6.78-1.6-1.59-4.12.87-6.42,4.24-8.39-9.68-3.11-12-2.38-15.84,5.4a60.77,60.77,0,0,0,5.19,6.21,38.27,38.27,0,0,0,6.61,4.68c11,6.63,6.42,18.35-1.47,22.44C639.28,339.62,630.82,337.08,624,326.46Z"/><path d="M429.6,243.24l2.09-6.55c8.31-1.73,15.66.89,23.13,2.44l.15,1.61L442.29,244c-.14,2.55-.56,4.74-.33,6.87,1.23,11.12-2.36,21.23-5.47,31.69-7.11,24-18.59,46.05-28.15,68.94-4.53,10.84-10.91,20.9-16.37,31.37-7.27,13.95-14.39,28-21.73,41.92-2.83,5.37-6.29,10.31-13.1,13.12-.25-6.29,3.48-9.82,5.66-13.94,2.88-5.4,6.65-10.45,8.72-16.13a184.35,184.35,0,0,1,23.25-43.4c2.1-3,3.39-6.54,4.77-9.95,10.52-26,21.13-52,31.28-78.1,2.09-5.38,2.7-11.43,3.37-17.25S434.38,247.73,429.6,243.24Z"/><path d="M738,460.91l-9.6,8-7.37-4.11c-9.66,9.91-11.43,23.51-16.34,36.26l-8.35.76c2.9-13.88,5.53-26.48,8.19-39.26l-5.6-2.17.09-1.29,14.35-1.59c-.32,4.7-.56,8.22-.88,12.9,5.05-5.33,7.19-12.79,15.05-12.49h19.55c1.57,12.78-3.55,24.91,1.36,37a59,59,0,0,0,18.62-16.31,22.15,22.15,0,0,0,3.82-10.14c.64-5.05-2-7.13-8.59-7.59.51,2.36,1,4.59,1.7,7.85l-7,3c-4.49-6.33-4-10,1-13s12.1-1.47,14.51,4a15.49,15.49,0,0,1,1,9.2,23.74,23.74,0,0,1-5,9.69c-7.42,8.59-16.27,15.57-26.92,21.8C735.35,489.86,739.71,475.94,738,460.91Z"/><path d="M672.75,296.42,667.64,295c-.29-2.73,6.28-4.14,14.17-3.16.25,1,.6,2.06.82,3.2.18.93.19,1.9.31,3.12a7.2,7.2,0,0,0,2.13-.47,20.1,20.1,0,0,0,2.24-1.9c5.26-4.41,11.08-5.15,17.14-2.1s7.91,8.95,7.28,15c-1.52,14.54-11.46,25.64-25.33,27.74-3.74.57-7.7-.25-12.41-.47-1.76,7.12-3.49,14.15-5.38,21.84h-8.52C664.41,336.82,668.55,316.75,672.75,296.42Zm3.34,34.73c6.41,3.47,12.12,2.61,17-2.79a37.78,37.78,0,0,0,9.29-21.21c.55-4.67-.84-9.35-6.23-11C685.68,298.49,675.31,316.79,676.09,331.15Z"/><path d="M573.33,139.76l-5.18,22h-8.42c2.59-21.15,9.16-41,12.56-61.73l-5.53-.62a16.24,16.24,0,0,1,14.35-3.22v9.9c1.7-2.1,2.85-3.79,4.27-5.23A15.32,15.32,0,0,1,603,97.48c5.63,2.72,8.83,9.21,7.93,16.1-2.39,18.21-15.84,28.49-34.25,26.19C576,139.68,575.22,139.76,573.33,139.76Zm2.12-4.26c10.17,3,15.25.92,20.94-7.93,6.35-9.87,6.9-19.76,1.37-26.41-5-1.76-9,0-12,4.23a63.37,63.37,0,0,0-10.68,26.27A15.75,15.75,0,0,0,575.45,135.5Z"/><path d="M460.91,381.11c.88-3.31,1.69-6.63,2.63-9.91,5.5-19.37,11.07-38.71,16.49-58.11a36.51,36.51,0,0,0,1.43-9.39c.09-11.8,0-23.59-.23-35.39-.05-3.09-.65-6.17-.94-8.76l-19-10.68.43-2c2.25,0,4.66-.53,6.7.12a73.41,73.41,0,0,1,11.51,4.84c7.6,4,11.64,9.66,10.81,19-1.19,13.17-.24,26.6-2.15,39.63-1.77,12.05-5.83,23.82-9.4,35.55-3.89,12.78-10.92,24-18.35,35Z"/><path d="M821.64,296.78l-15.92,2.05c-2.41,11.24-6,22-6.43,33.38l2,1,6.07-6.89c.74,5.49-2.45,9.94-7.87,10.53-5,.54-9.37-3.47-9.12-9.21.17-3.86,1.56-7.66,2.34-11.5,1-5.06,2-10.13,3.1-15.68l-3.57-4.29,5.1-2.92,3.13-9.46h7.43c-.18,3.73-.33,6.83-.54,11.34,4.43-.63,8.35-1.24,12.29-1.74,3.74-.48,7.5-.84,11.73-1.3-.56,14.42-8,26.45-6.85,39.72l1.53.62,6.43-7.89c.58,6-1.63,9.49-5.43,11.2a10.9,10.9,0,0,1-8.23-.06c-3.89-1.89-5-5.83-3.94-10.14,1.63-6.43,3.33-12.85,4.91-19.3C820.39,303.72,820.79,301.11,821.64,296.78Z"/><path d="M929.27,333.53l5.4-8,1.68.9c-1.45,2.82-2.49,6-4.45,8.36a7.83,7.83,0,0,1-9.3,2.61c-3.5-1.4-5.74-4.2-5.4-8a125.16,125.16,0,0,1,2.42-14.47c.76-3.6,2.06-7.08,2.86-10.68,1-4.62-.66-7.64-6.51-8.56-14.14,9-17,25-22.23,39.79a18.57,18.57,0,0,1-3.34,1.26c-.9.16-1.89-.19-3.68-.41,0-12.93,4.84-24.9,6.61-37.86l-6.17-2.93a23.11,23.11,0,0,1,15-2.51V304.6c1.93-2.21,3.2-4.27,5-5.62,3.1-2.31,6.28-5,9.87-6.07,8.89-2.73,16.57,4.42,14.67,13.46-1.47,7-3.71,13.76-5.32,20.7-.44,1.93.16,4.11.28,6.17Z"/><path d="M855.72,338.44c-12.23,0-20.58-9.8-19-21.89,1.11-8.5,4.67-15.41,11.37-20.74,12.39-9.85,28.65-3.87,31.58,11.63C882.5,322.44,870.16,338.41,855.72,338.44Zm-9.13-19.34c-.12,10.51,2.09,14.38,6.95,15.53s9-1.14,11.83-7.65c3.33-7.64,6.49-15.39,4.82-24.14-1.5-7.9-7.5-10.64-13.86-5.8a16,16,0,0,0-5.42,6.78C848.77,309.77,847.43,316,846.59,319.1Z"/><path d="M134.52,201.37c-9.16,19.81-8.62,39.1-4.89,58.74h12.8c-1.94,3.56-3.35,6.17-5,9.19,1.21,2.79,2.54,5.83,3.86,8.88l-1,1.33c-2.57-1.43-5.68-2.35-7.61-4.39a50.18,50.18,0,0,1-13.94-40.51,171.68,171.68,0,0,1,3.58-21.82c1-4.4,3.13-8.54,4.92-13.22Z"/><path d="M724.32,320.3c-2.57,7.93-1.05,11,8,14.68,3.78-2.58,8.13-5.57,13.92-9.54-1.43,2.67-2,4.34-3,5.57-4.78,5.55-13.71,7.88-20.21,5.34-7.25-2.83-9.71-8.8-9.66-15.92.07-11.05,4.78-19.89,13.73-26.41.4-.29.83-.54,1.25-.79,8.45-4.79,17.94-3,21.33,4.07,3.2,6.66-1.38,16.37-9.92,19.55C735,318.63,729.79,319.13,724.32,320.3Zm.31-5.71c9.33,1.94,15.4-.71,20.15-8.43,2.88-4.66,2.79-8-.25-10.47-2.8-2.26-7.11-1.94-10.69,1.21C728.5,301.58,726.22,307.87,724.63,314.59Z"/><path d="M696.62,558.76,709.75,556v11c-4.27-3.39-8.08-5.31-13.28-2.75V576c7.42,3,9.21,2.61,20.4-5.27-.86,4.25-1.48,7.29-2.21,10.89H682.88c8.31-6,4.36-13.7,4.43-20.33s4.22-14.37-3.94-20.07h29.86c.39,3.23.7,5.79,1,8.36l-1.16.72-5.2-4.84H696.62Z"/><path d="M689.86,492.44c-3.48,7.79-10.08,11.53-18,10.32s-12.44-6.22-13.21-14.44a29.55,29.55,0,0,1,9-24.79c3.63-3.5,9.13-5.59,14.15-7,4.71-1.31,9.24.68,12,5.18s2,8.88-.58,13.19c-3.58,6-9,8.85-15.75,9.58-2.67.29-5.36.42-7.93.62-3.06,8-1.6,11.25,7.55,15.4Zm-20-12.3c9.6,2.07,18-1.92,20.84-9.79,1.23-3.4,1.4-7-1.87-9.39s-6.53-1.6-9.47.84C673.61,466.59,671.06,473,669.86,480.14Z"/><path d="M847.34,486.67c-1.08,5.54-1.4,10.11,3.08,12.88,7.92,4.91,12.33-2.66,18.25-6.09a17,17,0,0,1-18.87,10.47c-7.08-1.14-11.9-6.6-12.57-14.25-1.25-14.24,7.14-27.67,19.51-31.22,7.09-2,13.26-.1,16.24,5.1s1.32,13-4.62,17c-3.92,2.63-8.84,3.87-13.43,5.34C852.69,486.58,850.16,486.4,847.34,486.67Zm1.62-4.31c7.59.89,14-1.07,18.82-7.17,3.33-4.2,3.11-8.16-.26-13.31C857.21,460.11,849.85,468,849,482.36Z"/><path d="M555.76,129.41a16.52,16.52,0,0,1-17.7,11A15.68,15.68,0,0,1,525,129.05c-3.78-13.57,8-32.15,21.82-34.46,5.38-.9,11.1,1.41,13.54,5.47s1.66,9.83-1.83,14.44c-3.84,5.06-9.09,7.29-15.18,8-2.42.27-4.84.43-7.08.62-2.53,5.91-2,10.38,1.4,12.79s8.78,1.67,12.85-1.78C552.31,132.57,554,131,555.76,129.41Zm-19.45-11.35c10.72,1.41,17.68-2,20.82-9.56,1.4-3.37,1.82-6.81-1.34-9.39s-6.49-1.71-9.47.45C540.21,104,537.57,110.31,536.31,118.06Z"/><path d="M776.85,301.65l6.16-5.36c-3.78-3.4-7.55-2.32-10.49.59-7.9,7.81-12,17.47-11.1,28.6.6,7.36,7.12,10.44,13.55,6.75,2.88-1.65,5.22-4.25,8-6.6-1.33,6.72-7,11.37-14.41,12.1a15.61,15.61,0,0,1-15.66-10c-5.17-14.53,6.86-34.62,22-36.82,6.53-.94,12.34,2.16,13.69,7.32,1,3.82-.9,8.19-4.27,9.13C780.19,308.56,777.84,306.65,776.85,301.65Z"/><path d="M826.38,466.29l5.62-3.82c-4.62-2.44-8.75-2.39-12.16,1.11a34.33,34.33,0,0,0-9.9,29.67c.74,5.55,5.75,8.37,11,6.2,3.5-1.44,6.52-4.06,10.5-6.64-.56,1.74-.57,3.47-1.37,4-3.86,2.49-7.68,5.51-12,6.74-7.51,2.16-15.06-2.75-17.2-10.18-3.36-11.68,4.46-31.39,18-34.79,3.65-.91,8-1.24,11.43,0,2.69,1,5.24,4.37,6.26,7.26.66,1.84-1.14,5.08-2.71,7-.88,1.06-3.8,1.31-5.34.73C825.6,472.35,825.13,469.64,826.38,466.29Z"/><path d="M687.47,109.72c-2.12-5.77,1.76-7.4,6.24-9.28-5.09-2.43-8.62-1.89-12.06.62-7.21,5.23-12.95,21.39-10.45,30a25.32,25.32,0,0,0,2.32,4.64c8,3.8,13.07-.67,18.81-5.68-3.55,8.29-11.38,12.74-18.41,11.3-7.53-1.54-12.19-7.16-12.53-15.14-.53-12.26,6.39-24.79,16.56-28.9a20.38,20.38,0,0,1,10.7-1.49c3,.54,6.17,2.88,8.14,5.33s1.78,6.19-.84,8.79S690.27,112.2,687.47,109.72Z"/><path d="M851.11,582.19c6.11-2.81,11.45-6.05,14.15-13.53-2-.34-3.73-.71-5.46-.92-5.86-.71-9.26-3.53-10.43-8.74a15.35,15.35,0,0,1,6.38-16.14,11.8,11.8,0,0,1,13.79.75c5.7,4.25,7.38,10.09,6.81,16.94C875.26,573.59,863.27,584.25,851.11,582.19Zm8.59-36.42c-4.52,7.56-3.87,12.66,2.67,18.14,1.73-.82,3.77-1.81,5.39-2.59C869.2,550,867.45,546.68,859.7,545.77Z"/><path d="M152.5,246.72c7.12,4.23,12.71,9.45,13.76,18.28-4.27,3.92-8.83,3.11-14.4,1.45,1.3-3.21,2.44-6,3.65-9-4.14-6.36-12.62-9.72-13.39-18.51,4.71-3.16,9.9-5.6,13.68-9.43,4.73-4.8-1.28-10.53-.48-16.34,5.27-.39,9,1.85,10.68,6.16,2,5.15.35,10.21-3.23,14.32-1.57,1.81-3.87,3-5.8,4.47C154.42,240.09,152.07,242.22,152.5,246.72Z"/><path d="M834.35,567.63c-1.18,0-2.37,0-3.56,0-6.65-.34-11-3.72-12.28-9.47s2.6-13.67,7.92-16.08a12.38,12.38,0,0,1,15.23,3.67,19.59,19.59,0,0,1,3.62,18.7c-3,10.32-13.61,18.58-25.06,18.11,3.65-2.1,6.73-3.28,9-5.34,2.43-2.22,4.08-5.29,6.08-8Zm-1.35-3.9c4.82-3.71,6.09-8.8,3.73-14.17-1.6-3.64-4.17-5.23-8.07-3.55C824.26,553.71,825.65,559.74,833,563.73Z"/><path d="M626.25,135.85l5.92-7c-.85,6.91-3.39,10.37-7.91,11.22-6.07,1.15-10.84-4.28-9.5-11.31,1.55-8.16,3.56-16.24,5.44-24.68l-3.67-4.45,4.86-2.38,3.28-10h6.84v10l7,2.92L629.71,103c-2.31,10.27-5.7,20.76-6.11,31.77Z"/><path d="M646.53,101.44l-6-1.9,0-1.51,15.06-2.32a53.51,53.51,0,0,1-.66,7c-2.12,8.82-4.47,17.6-6.56,26.43a42,42,0,0,0-.52,6.67l2,.84,6.35-6.9c.32,5.93-3.32,10.43-8.56,10.58s-9-3.85-8.21-9.81c.88-6.53,2.8-12.92,4.37-19.35C644.49,108.08,645.48,105.07,646.53,101.44Z"/><path d="M289.42,249.55c-5.12,9.66-6.58,19.27-.75,29.38,2.58,4.46,5.83,9.11,4.48,14.94-6.17,1.66-6.29-4.74-10-6.87a51.21,51.21,0,0,1-4.38,3.53,34.26,34.26,0,0,1-4.53,2.06c-2.88-6.38,3.17-7.93,5.47-12.25-.62-5.82-1.52-12.37-2-18.95-.61-8.68,1.94-12.23,10.4-14.79.44.91.91,1.9,1.38,2.89Z"/><path d="M785.59,463.43,779.93,462c-.07-2.5,3.4-3.29,13.33-3.11a46.18,46.18,0,0,1-.41,6.9c-1.76,8.63-3.79,17.2-5.56,25.83a45.09,45.09,0,0,0-.41,6.6l2,.68,5.37-7.27c-.06,7-3.07,10.87-8.14,11s-8.42-3.65-7.72-10.09c.55-5.07,2.08-10,3.33-15C782.82,473,784.15,468.59,785.59,463.43Z"/><path d="M886.49,582.37c3.73-10.47,7.45-21,11.28-31.7-6.53-2.29-12.09-1.31-19,2.24,1.16-4.18,1.94-7,2.87-10.38h24.1c-2.72,14.15-8.58,26.29-13.31,38.76-.44,1.16-2.49,1.72-3.79,2.55Z"/><path d="M721,573.94c9.12,5.59,9.12,5.59,13.18.84-2.51-1.55-4.91-3.07-7.33-4.52-5.64-3.39-7.56-7.42-5.67-12,1.8-4.39,5.45-5.9,11.62-4.8,1.43.26,2.87.55,5.09,1,.13,2.24.25,4.48.44,7.78-4.42-2-7.13-7.72-12.87-2.38,2.57,1.81,4.66,3.53,7,4.87,6.26,3.62,8.66,7.08,7.51,11.25-1.24,4.53-5.8,6.9-12.6,6.49-1.95-.12-3.88-.44-6.35-.73Z"/><path d="M356,472.75c-.9-2.74-1.8-5.47-2.88-8.73l9.3-3.6,3.81-7.37,12.59-4.11c.86,1.55,1.36,2,1.3,2.39-1.21,7.8-7.58,12.46-12,18-2.11,2.65-8,2.27-12.22,3.27Z"/><path d="M808.64,582H796c3.48-6.24,4.21-16.53,2.55-33.68l-5-3.18L805,540.69c.35,2.84.72,4.65.78,6.47.27,8.54.31,17.1.76,25.63C806.72,575.77,807.86,578.69,808.64,582Z"/><path d="M208.65,375.93c.59-15.11.57-30.39,9.72-44.77.67,1.55,1.55,2.59,1.45,3.52-1.33,12.69-2.68,25.37-4.3,38C215.13,375.75,212.94,377.34,208.65,375.93Z"/><path d="M747.8,581.65c-5.19-6.88-2.42-14.46-2.93-22l-3-4.41,9.05-9.88c.82,3,1.38,5,2,7.14l4.62,3-4.92,3.29v17.26l6,1C756.54,582.36,752.94,583,747.8,581.65Z"/><path d="M404.89,392.47c14.85-8.49,28.7-16.57,36.18-11.35-.34.76-.5,2-1.13,2.35-9.42,4.6-17.84,11.38-28.58,13.18C408,397.21,405.49,397,404.89,392.47Z"/><path d="M342.15,581.4l-7.75,6.14c-1.54-7.25,4.82-11.22,4.79-16.76l-7.44-11.68,8.41-2.86c3.93,7.75,7.6,15,11.61,22.85C350.37,584.08,345.93,581.48,342.15,581.4Z"/><path d="M384.63,431c3-9.31,12-5.49,16.3-11.1.25-1.2.69-3.3,1.35-6.51l10.26,5.2-7,12.41Z"/><path d="M269.69,85.94c2.67-8.17,5.12-15.68,7.77-23.81l5.62,1.39C285.57,75,279.69,85,269.69,85.94Z"/><path d="M289.48,249.49c6-.43,8.86,4.34,13.66,7.51-.91,3.76-1.78,7.34-2.94,12.11l-11.36-7.67c.2-4.15.39-8,.58-11.89Z"/><path d="M273.64,270.68c-3.34,10.25-11.52,14.33-18.19,20.76-3.1-6,.52-9.27,3.24-11.67C262.66,276.25,265.19,269.78,273.64,270.68Z"/><path d="M418.39,402.46c-.14,6.43-4.09,8.54-7.9,10.45l-8.15-8.52C407.14,400.38,412.51,401.11,418.39,402.46Z"/><path d="M394.93,438.74c-1.84,6.9-4.48,7.77-14.76,4.91v-4.6C385.29,436.89,390.06,435.74,394.93,438.74Z"/><path d="M355.89,472.64c.91,4.55-1.25,7.55-5.15,9.28-2.87,1.27-5.17.14-6.74-3.19,1.77-6.09,6.88-6.05,12-6Z"/><path d="M266.38,515.48v8.31H257l-.75-6.34Z"/><path d="M837,277c-2.81,2.25-4.35,4.37-6.29,4.83-2.69.64-4.76-1.28-4.91-4.14-.17-3.11,1.54-5.56,4.75-5.12C832.48,272.8,834.14,274.9,837,277Z"/><path d="M652.48,76.24c3.55-.79,6.19.11,6.4,3.43.11,1.76-1.31,4.07-2.75,5.3-.78.67-3.55.12-4.56-.81C648.8,81.6,649.9,78.91,652.48,76.24Z"/><path d="M788.57,437.73c3.86,1.24,6.44,1.5,8.12,2.86.85.69.75,3.87-.11,5.09-1.78,2.51-4.45,2.5-7.57-.1C788.93,444.11,788.82,442.09,788.57,437.73Z"/><path d="M762.72,581.3c-1.2-3.75-.22-6.09,3.23-6.07,1.08,0,3.19,2.63,3,3.8C768.47,582.54,766,582.87,762.72,581.3Z"/><path d="M304.92,311.16l6.25,4.56c-5.51,2.64-6.79.36-7.78-2.4Z"/><path d="M298.78,205.82c-3.41,2-5.48.11-6.82-4.11l7.38,2Z"/><path d="M660.76,168c-1.11-5.16.43-7.12,5-7.25Z"/><path class="cls-1" d="M142,436.76c3.39,5.5,5.84,9.47,8.25,13.4-2.89,5.18-4.83,10.25-10.87,12.21a41.85,41.85,0,0,1-3-3.4c-4.73-6.87-8.66-14.46-14.26-20.52-10.35-11.2-16.72-24.76-24.37-37.59-6.92-11.58-13.7-23.24-21.38-36.29l20.18-35.28c4.33,4.55,8.48,8.81,12.53,13.16,5.69,6.1,11.33,12.25,17,18.39,10.13,11,20.32,22,30.35,33.09,4.22,4.66,4.09,10,0,16.95-3.22,5.5-6.62,10.9-9.76,16.45C144.78,430.72,143.21,434.3,142,436.76Z"/><path class="cls-1" d="M157.89,517l8.22,3-.94.71c6.87,9.23,13.61,18.56,20.67,27.63,4.26,5.46,6.62,11,5.93,18.26-.74,7.78-.16,15.69,0,23.55,0,2.85,0,5.44-4,6.34-3.1-4.22-6.23-8.49-9.6-13.06l3.74-7.83-10.32-3.21L183.2,561c-6.5-5.2-9.11,2.42-14.77,2.52L161.34,559V548.32l-9.63-1.11c-2.61-6.23,5.08-6.64,5.72-11.15-5.51-4.44-7.8,2.64-13.23,3.66l-21.14-18.15c.44-8.79,11.82-7.51,12-16.19-9.19.59-14.91,8.6-23.46,10.16-1-.86-2.26-1.49-2.64-2.48-2.21-5.82-6-9.12-12.43-10-3.75-.53-4.25-2-5.93-9.52l16.64-4.47v-6.49l6.69-4.38c-1.22,3.62-2,5.88-3.07,9.08,7.06.44,11.08-4,17.78-7.16L119,475.64l-6.19-7.78,3.87-10.21-1.26-1.37L98.17,462l-7-4.55,1.23-6.56c-7.09-1.09-13.49,4.61-21.53.51,2.22-1.33,3.68-3,5.11-2.94,9.54.11,16.61-5.52,24.24-9.9,2.12-1.21,4.28-2.35,7.37-4.05,4.46,5.67,9.19,11,13.11,16.81,8.52,12.65,16.86,25.43,24.82,38.43,5.24,8.56,10.74,17.13,12.45,27.35-9.88-1.85-19.44,3.46-19.63,11.29,5.56-2.09,11.12-3.86,16.36-6.31C156.24,521.37,156.86,518.73,157.89,517Zm-26.23-24.71c-6.06,2.37-12.49,3.7-18.5,8.26C123.17,503.29,129.87,500.25,131.66,492.27Zm-26.21-45.56-11.59,1.92C100.27,453.59,101,453.5,105.45,446.71ZM167.1,549.82l6.25-5.38C166.68,543.76,166.68,543.76,167.1,549.82ZM141,504.65l2-1.36-2.56-3.51-1.65,1.07Z"/><path class="cls-1" d="M168.54,441.81c1.07,4.06,1.86,7,2.63,10,6.75-1.22,7.87-2.55,9.14-8,.86-3.76,2.52-7.33,3.8-11,1.69-4.85,3.4-9.7,5-14.59,1.38-4.16,2.64-8.37,3.79-12,6.06-2.85,9.67-.43,12.9,3.51,4.47,5.47,5.32,12,5.75,18.69.16,2.65.42,5.29.63,7.78l7.06,2.78c.16,2.4.32,4.75.48,7.15-4.75,2.59-9,3.68-14.23-.2v-28l-9.43-1.33c0,7.36.31,13.67-.08,19.94-.39,6.09-1.5,12.13-2.38,18.84-3.45-2.82-7.33-4.21-12.22-.26-.16,1.29-1,3.48-.58,5.42,2.5,12.5,2.72,25.32,7,37.63,2.79,8.12,2.84,17.19,4.11,25.83l-1.8.53c-.8-2.73-2-5.41-2.33-8.2-2.16-17-6.74-33.25-15.93-47.93-2.16-3.46-3.89-7.39-10-9.25.9,3.26,1.19,5.47,2.1,7.39,3.67,7.78,7.66,15.41,11.26,23.22a18.28,18.28,0,0,1,1.83,7.8,45.08,45.08,0,0,0,5.25,23.46c1,1.81,1.24,4,1.83,6.05l-1.31.76c-4.81-6.08-9.89-12-14.35-18.31-5.38-7.64-10-15.83-15.36-23.45-8.52-12-4.41-26,5.17-33.43C161.86,449.78,164.63,446,168.54,441.81Z"/><path class="cls-1" d="M218.5,499.91c1,3,1.69,5.09,2.29,6.92-.95,6.25-4.65,9.82-10.53,11.69.63,2.69,1.17,5,1.88,8.07L204.94,540c-4-23.82-8-47.43-12-71.55L203,464.92c1.63-4.83-.57-10,5.64-11.88,5.48.27,11.62.19,17.65,1,7.92,1,11.05,4.79,12.15,13.52-6.3,10.23-18,10.39-28,13.6-.79,12.6,9.63,12.65,16.84,16.83Zm13.39-38.15c-8.24-4.17-15.45-5.87-24-2.72.44,2.22.84,4.18,1.34,6.69C216.9,464.85,224.3,467.64,231.89,461.76Z"/><path class="cls-1" d="M60.77,395.2c4.56-1.68,11.75,1.23,15-6.91l-16.1.85c-.74-3.68-1.44-7.19-2.27-11.29l13.74-8.77c3.17,6.33,5.55,11.69,8.45,16.74,4.76,8.27,9.92,16.31,14.8,24.51,3.09,5.2,6,10.53,9,15.86-12.54,11.26-26,17.07-42.44,17.61v-8.1c10.73-5.89,21-11.48,31.16-17.17.35-.2.18-1.34.29-2.39-5-2-9,.8-13,2.77-3.08,1.52-5.87,3.7-9,5-2.58,1-5.53,1.14-9.62,1.9Zm2.95,15.5,1.2,2.25,22.23-6c-1.46-2.56-2.43-4.27-4.06-7.11C76.66,404.56,66.41,400.69,63.72,410.7Z"/><path class="cls-1" d="M209.16,107.2l10.57-2.29c-11.19-8.88-12.3-12.81-6.36-22.14l15.34-1.5c1.89,6.82,2.17,12.09-1.56,17.65-2.32,3.46-3.12,8-4.11,12.24a111.86,111.86,0,0,0-1.57,11.2l-6.45,5.1c1.8,6.52,7.54,13.5-1.36,18.89-4.48,2.72-9.84,1.1-14-4.49l9.85-13.34c-.42-5.53-.95-11.82-1.3-18.12C208.11,109.29,208.85,108.14,209.16,107.2Z"/><path class="cls-1" d="M321.19,135.28l10.91,24,1.24-.42V167c-8.19,6.65-4.66,17.74-10,25.94-6-.12-12.23-.14-15.87-5.63-3.51-5.3.68-10.26,2-15.65l8.09-1.31c-.84-5.6-2.74-11.3-2.23-16.77C315.87,148,318.74,142.58,321.19,135.28Z"/><path class="cls-1" d="M249,127.21H232.08c-.63,1.68-1.34,3.59-2.35,6.31l18.64,4.22c-1,4.79-1.76,8.9-2.58,13-6.9,1.11-12.87,2.05-19.52-.91-1.37-13.22,5.25-25.15,5-37.51,6-2.42,10.4-.81,14.69,1C252.63,116.14,253.57,120.17,249,127.21Z"/><path class="cls-1" d="M304,145.28,299,137.54c1.46-7.72,3-15.83,4.53-24,11.39,4,12.64,17.93,3.12,30-.16,10.1-5,29.41-10.35,40.82l-9.95-2.88c2-3.75,3.56-6.59,5.06-9.45s4.47-6,4.3-8.85C295.23,155.76,296.3,149.5,304,145.28Z"/><path class="cls-1" d="M284.62,141.81l6.11,4.29c-.49,2.93-.74,5.32-1.3,7.64a109.29,109.29,0,0,1-3.54,12.78c-1.28,3.38-2.85,6.95-5.27,9.53-4.44,4.75-10.35,3-12.87-3.39,2.52-5.88,8.8-6.35,13.88-9.1-.6-1.63-.84-3.12-1.62-4.23-2.56-3.63-2-7.21-.89-11.24A114.37,114.37,0,0,0,282,132.24c.44-3.51.53-6.94,5-8.89l5.81,2.67C295.89,133.93,290.06,137.09,284.62,141.81Z"/><path class="cls-1" d="M202,87.1c-1.1,3.91-2.51,7.43-3,11.08s.52,7.33,0,10.9c-.51,3.76-2,7.39-3.29,11.93l-17.47-3.31c-1.67-6-1.8-10.84,2.24-15l11-2.55c-.12-6.85-7.19-5.44-8.94-9.5C184.61,87.78,184.61,87.78,202,87.1Z"/><path class="cls-1" d="M141.89,136.69c.62-4.25,1.24-8.54,2-13.68,7.94-.69,15.4-1,22.69,4.18-1.25,4.63-2.38,8.81-3.61,13.32C155.43,142.32,148.79,141.28,141.89,136.69Z"/><path class="cls-1" d="M193.57,129.75c-.33,4-.71,8.75-1.09,13.49-6.83,1.25-12.52,2.46-17.63-2-.92-5.82-1.57-11.33,2.61-16.22C183,123.82,188.21,123.56,193.57,129.75Z"/><path class="cls-1" d="M106.73,161.32c.83-7,2.36-13.24,8.33-18.31l12.68,5.43C131.66,161,121.62,165.84,106.73,161.32Z"/><path class="cls-1" d="M153.69,163.58,136,161.68c.48-4.52.91-8.64,1.34-12.74,8.2-1.9,15-.9,21.41,2.75C161.48,157.44,158,160.4,153.69,163.58Z"/><path class="cls-1" d="M169,115.79c-6.79,2.7-12.82.18-18.91-1.78.91-8.5,11-17.84,18.91-17.23Z"/><path class="cls-1" d="M164.76,412.15a24,24,0,0,1,2,4.12A80.55,80.55,0,0,1,169,428.21c.18,2.44-.23,5.53-1.64,7.34-2.31,2.94-5.66,5.07-8.37,7.39-5.88-4-7.26-6.63-5.07-11.17C157,425.32,160.83,419.18,164.76,412.15Z"/><path class="cls-1" d="M271.92,143.52c-.89,3.84-1.81,7.76-2.66,11.41-8.62,1.48-13.13-.93-16.22-8.24,1.26-5.91,5.61-8,11.56-8.78Z"/><path class="cls-1" d="M217.14,167.62c.76-3.65,1.43-6.87,2.35-11.32l18.92,4.55c.21,2.83.38,5.12.61,8.33C231.59,168.83,224.84,172.79,217.14,167.62Z"/><path class="cls-1" d="M191.32,167.58l3.48-14.29,13.61,2.35c2.3,5.37,2.3,5.37-1.53,11.94Z"/><path class="cls-1" d="M274.59,119c.21,4.51.42,9.11.66,14.32l-10.52,1.17c-6.62-3.88-5.71-9.2-3.8-15.49Z"/><path class="cls-1" d="M333.51,197.33c-1.57-6.59-2-12.48,3-18.51l13.15,21C343.34,202,338.59,200.44,333.51,197.33Z"/><path class="cls-1" d="M295.87,115.27l-7.53,3.46c-6.71-6.34-3.88-14.07-4.73-21.4C293,99,297.17,105,295.87,115.27Z"/><path class="cls-1" d="M245.15,171.6l3.54-10.53,14.93,1.85c2.54,3.58,1.62,6-.8,7.77C257.66,174.52,252.13,175.1,245.15,171.6Z"/><path class="cls-1" d="M168.75,162.59v-7.8c6.2-3.77,8.77-3.74,15.8-.09C182.26,163.69,179.23,165.35,168.75,162.59Z"/><path class="cls-1" d="M115.87,175.44c.31,4.23-1.55,6.51-4.92,7.55-4.68,1.45-9.14,1.35-13.7-3.58C103.35,175.76,109.44,175.73,115.87,175.44Z"/><path class="cls-1" d="M145.69,176.91c-2.82,6.42-8.22,4.47-12.31,5.19-1.48.26-3.41-2-4.84-4.13C134.17,176.18,139.33,173.27,145.69,176.91Z"/><path class="cls-1" d="M133.84,127.48c.09,8.63-.9,10.14-7,11.51C126.41,133.54,130.22,131.3,133.84,127.48Z"/><path class="cls-1" d="M391.49,294c-1.55-6,.92-9,4.12-12,5-4.65,9.5-9.74,14.37-14.48,2.7-2.62,5.71-4.91,8.57-7.36l1.58,1.65Z"/><path class="cls-1" d="M363.47,334.22c.31-7.57,5.55-10.66,9.93-14.3Z"/><path class="cls-1" d="M676.09,331.15c-.78-14.36,9.59-32.66,20-35,5.39,1.66,6.78,6.34,6.23,11a37.78,37.78,0,0,1-9.29,21.21C688.21,333.76,682.5,334.62,676.09,331.15Z"/><path class="cls-1" d="M575.45,135.5a15.75,15.75,0,0,1-.39-3.84,63.37,63.37,0,0,1,10.68-26.27c3-4.23,7-6,12-4.23,5.53,6.65,5,16.54-1.37,26.41C590.7,136.42,585.62,138.47,575.45,135.5Z"/><path class="cls-1" d="M846.59,319.1c.84-3.08,2.18-9.33,4.32-15.28a16,16,0,0,1,5.42-6.78c6.36-4.84,12.36-2.1,13.86,5.8,1.67,8.75-1.49,16.5-4.82,24.14-2.82,6.51-6.89,8.82-11.83,7.65S846.47,329.61,846.59,319.1Z"/><path class="cls-1" d="M724.63,314.59c1.59-6.72,3.87-13,9.21-17.69,3.58-3.15,7.89-3.47,10.69-1.21,3,2.46,3.13,5.81.25,10.47C740,313.88,734,316.53,724.63,314.59Z"/><path class="cls-1" d="M669.86,480.14c1.2-7.16,3.75-13.55,9.5-18.34,2.94-2.44,6.3-3.16,9.47-.84s3.1,6,1.87,9.39C687.86,478.22,679.46,482.21,669.86,480.14Z"/><path class="cls-1" d="M849,482.36c.89-14.41,8.25-22.25,18.56-20.48,3.37,5.15,3.59,9.11.26,13.31C863,481.29,856.55,483.25,849,482.36Z"/><path class="cls-1" d="M536.31,118.06c1.26-7.75,3.9-14.08,10-18.5,3-2.16,6.35-3,9.47-.45s2.74,6,1.34,9.39C554,116.08,547,119.47,536.31,118.06Z"/><path class="cls-1" d="M859.7,545.77c7.75.91,9.5,4.23,8.06,15.55-1.62.78-3.66,1.77-5.39,2.59C855.83,558.43,855.18,553.33,859.7,545.77Z"/><path class="cls-1" d="M833,563.73c-7.35-4-8.74-10-4.34-17.72,3.9-1.68,6.47-.09,8.07,3.55C839.09,554.93,837.82,560,833,563.73Z"/><path d="M157.89,517c-1,1.75-1.65,4.39-3.17,5.1-5.24,2.45-10.8,4.22-16.36,6.31.19-7.83,9.75-13.14,19.63-11.29Z"/><path d="M131.66,492.27c-1.79,8-8.49,11-18.5,8.26C119.17,496,125.6,494.64,131.66,492.27Z"/><path d="M105.45,446.71c-4.5,6.79-5.18,6.88-11.59,1.92Z"/><path d="M167.1,549.82c-.42-6.06-.42-6.06,6.25-5.38Z"/><path d="M141,504.65l-2.17-3.8,1.65-1.07,2.56,3.51Z"/><path d="M231.89,461.76c-7.59,5.88-15,3.09-22.62,4-.5-2.51-.9-4.47-1.34-6.69C216.44,455.89,223.65,457.59,231.89,461.76Z"/><path d="M63.72,410.7c2.69-10,12.94-6.14,19.37-10.88,1.63,2.84,2.6,4.55,4.06,7.11l-22.23,6Z"/></g></g></svg>